<svg xmlns="http://www.w3.org/2000/svg" xmlns:xlink="http://www.w3.org/1999/xlink" width="320" zoomAndPan="magnify" viewBox="0 0 240 167.999997" height="224" preserveAspectRatio="xMidYMid meet" version="1.0"><defs><g/><clipPath id="aab357e587"><path d="M 68 65 L 158 65 L 158 113 L 68 113 Z M 68 65 " clip-rule="nonzero"/></clipPath><clipPath id="9d437e9f01"><path d="M 154.453125 113.734375 L 66.453125 71.75 L 70.652344 62.949219 L 158.648438 104.933594 Z M 154.453125 113.734375 " clip-rule="nonzero"/></clipPath><clipPath id="78e38e4475"><path d="M 154.453125 113.734375 L 66.453125 71.75 L 70.652344 62.949219 L 158.648438 104.933594 Z M 154.453125 113.734375 " clip-rule="nonzero"/></clipPath><clipPath id="3506eeb9f0"><path d="M 81 0 L 173 0 L 173 97.5 L 81 97.5 Z M 81 0 " clip-rule="nonzero"/></clipPath></defs><g clip-path="url(#aab357e587)"><g clip-path="url(#9d437e9f01)"><g clip-path="url(#78e38e4475)"><path fill="#ffffff" d="M 68.566406 67.753906 C 68.5 68.234375 68.792969 68.632812 69.125 68.945312 C 69.230469 69.039062 69.328125 69.140625 69.425781 69.242188 C 69.90625 69.808594 70.246094 70.480469 70.640625 71.105469 C 70.699219 71.199219 70.757812 71.296875 70.8125 71.398438 C 70.824219 71.414062 70.832031 71.433594 70.84375 71.453125 C 70.867188 71.5 70.890625 71.550781 70.914062 71.601562 C 71.015625 71.824219 71.105469 72.054688 71.1875 72.285156 C 71.347656 72.746094 71.492188 73.195312 71.757812 73.609375 C 72.335938 74.503906 73.339844 75.035156 74.410156 74.964844 C 74.875 74.9375 75.359375 74.785156 75.738281 74.511719 C 76.164062 74.210938 76.4375 73.785156 76.566406 73.28125 C 76.671875 72.863281 76.628906 72.394531 76.507812 71.976562 C 76.808594 72.117188 77.101562 72.257812 77.402344 72.402344 C 77.507812 72.453125 77.617188 72.503906 77.726562 72.554688 C 77.816406 72.839844 78.019531 73.085938 78.242188 73.292969 C 78.347656 73.390625 78.445312 73.492188 78.542969 73.59375 C 79.019531 74.160156 79.363281 74.832031 79.757812 75.453125 C 79.816406 75.550781 79.875 75.648438 79.929688 75.746094 C 79.941406 75.765625 79.949219 75.785156 79.960938 75.800781 C 79.984375 75.851562 80.007812 75.902344 80.03125 75.949219 C 80.128906 76.175781 80.222656 76.40625 80.304688 76.636719 C 80.464844 77.09375 80.609375 77.542969 80.875 77.960938 C 81.453125 78.855469 82.457031 79.382812 83.527344 79.316406 C 83.992188 79.285156 84.476562 79.132812 84.855469 78.863281 C 85.28125 78.558594 85.554688 78.132812 85.679688 77.632812 C 85.789062 77.210938 85.746094 76.746094 85.625 76.324219 C 86.039062 76.523438 86.457031 76.722656 86.867188 76.917969 C 86.875 76.921875 86.882812 76.925781 86.886719 76.925781 C 86.976562 77.210938 87.183594 77.457031 87.402344 77.664062 C 87.507812 77.761719 87.605469 77.863281 87.703125 77.964844 C 88.183594 78.53125 88.523438 79.203125 88.917969 79.824219 C 88.976562 79.921875 89.035156 80.019531 89.089844 80.117188 C 89.101562 80.136719 89.109375 80.152344 89.121094 80.171875 C 89.144531 80.222656 89.167969 80.273438 89.191406 80.320312 C 89.292969 80.546875 89.382812 80.777344 89.464844 81.007812 C 89.628906 81.464844 89.769531 81.914062 90.035156 82.328125 C 90.613281 83.226562 91.617188 83.753906 92.6875 83.6875 C 93.152344 83.65625 93.636719 83.503906 94.015625 83.230469 C 94.441406 82.929688 94.714844 82.503906 94.84375 82.003906 C 94.949219 81.582031 94.910156 81.117188 94.785156 80.695312 C 98.445312 82.441406 142.6875 103.550781 143.527344 103.949219 C 143.527344 103.953125 143.527344 103.957031 143.527344 103.960938 C 143.867188 105.371094 144.203125 106.777344 144.535156 108.1875 C 144.574219 108.355469 144.757812 108.527344 144.90625 108.597656 C 145.066406 108.675781 145.292969 108.695312 145.460938 108.628906 C 145.632812 108.558594 145.796875 108.433594 145.871094 108.257812 C 145.949219 108.070312 145.945312 107.898438 145.898438 107.703125 C 145.664062 106.71875 145.429688 105.734375 145.195312 104.75 C 146.0625 105.164062 146.929688 105.578125 147.796875 105.988281 C 147.796875 105.992188 147.796875 105.996094 147.796875 106 C 148.132812 107.40625 148.46875 108.816406 148.804688 110.222656 C 148.84375 110.390625 149.027344 110.5625 149.175781 110.636719 C 149.335938 110.710938 149.5625 110.730469 149.726562 110.664062 C 149.902344 110.59375 150.0625 110.46875 150.140625 110.292969 C 150.21875 110.105469 150.214844 109.9375 150.167969 109.742188 C 149.933594 108.753906 149.699219 107.773438 149.464844 106.785156 C 150.207031 107.140625 150.949219 107.496094 151.691406 107.847656 C 151.691406 107.851562 151.695312 107.855469 151.695312 107.859375 C 152.027344 109.265625 152.363281 110.671875 152.699219 112.082031 C 152.738281 112.25 152.921875 112.421875 153.070312 112.492188 C 153.230469 112.570312 153.457031 112.589844 153.621094 112.523438 C 153.796875 112.453125 153.957031 112.328125 154.035156 112.152344 C 154.113281 111.964844 154.109375 111.792969 154.0625 111.597656 C 153.828125 110.613281 153.59375 109.628906 153.359375 108.644531 C 153.476562 108.699219 153.589844 108.753906 153.703125 108.808594 C 154.261719 109.074219 154.820312 109.339844 155.378906 109.605469 C 156.21875 110.007812 156.839844 108.703125 156 108.300781 C 155.390625 108.011719 154.78125 107.71875 154.167969 107.429688 C 155.039062 107.011719 155.910156 106.59375 156.777344 106.179688 C 156.957031 106.09375 157.101562 105.996094 157.1875 105.808594 C 157.265625 105.648438 157.285156 105.421875 157.21875 105.257812 C 157.085938 104.921875 156.65625 104.640625 156.292969 104.816406 C 155.03125 105.421875 153.765625 106.027344 152.5 106.632812 C 151.691406 106.25 150.886719 105.863281 150.078125 105.476562 C 150.945312 105.0625 151.816406 104.644531 152.683594 104.230469 C 152.863281 104.144531 153.007812 104.042969 153.097656 103.859375 C 153.171875 103.699219 153.191406 103.472656 153.125 103.304688 C 152.992188 102.972656 152.566406 102.691406 152.203125 102.863281 C 150.9375 103.46875 149.671875 104.078125 148.410156 104.683594 C 147.578125 104.285156 146.75 103.890625 145.921875 103.496094 C 146.789062 103.078125 147.660156 102.664062 148.527344 102.246094 C 148.707031 102.164062 148.851562 102.0625 148.941406 101.875 C 149.015625 101.714844 149.035156 101.492188 148.96875 101.324219 C 148.835938 100.992188 148.410156 100.707031 148.046875 100.882812 C 146.78125 101.488281 145.515625 102.097656 144.25 102.703125 C 143.886719 102.527344 95.132812 79.265625 95.085938 79.242188 C 95.394531 79.132812 95.6875 78.976562 95.929688 78.765625 C 96.332031 78.421875 96.621094 77.984375 96.707031 77.453125 C 96.796875 76.921875 96.679688 76.402344 96.417969 75.9375 C 96.152344 75.464844 95.671875 75.09375 95.179688 74.878906 C 94.648438 74.644531 94.0625 74.539062 93.480469 74.558594 C 92.957031 74.578125 92.449219 74.734375 91.945312 74.863281 C 91.894531 74.878906 91.84375 74.890625 91.792969 74.902344 C 91.785156 74.90625 91.769531 74.910156 91.75 74.914062 C 91.605469 74.941406 91.464844 74.972656 91.320312 75.007812 C 91.15625 75.046875 90.992188 75.097656 90.832031 75.15625 C 90.503906 75.269531 90.179688 75.402344 89.84375 75.496094 C 89.800781 75.507812 89.757812 75.519531 89.714844 75.53125 C 89.710938 75.53125 89.710938 75.53125 89.707031 75.53125 C 89.613281 75.550781 89.519531 75.566406 89.425781 75.578125 C 89.230469 75.597656 89.039062 75.605469 88.84375 75.597656 C 88.683594 75.589844 88.523438 75.570312 88.363281 75.550781 C 88.265625 75.539062 88.167969 75.53125 88.070312 75.542969 C 87.902344 75.5625 87.730469 75.59375 87.574219 75.65625 C 87.023438 75.394531 86.472656 75.132812 85.921875 74.871094 C 86.230469 74.757812 86.523438 74.601562 86.769531 74.394531 C 87.167969 74.050781 87.457031 73.609375 87.542969 73.078125 C 87.632812 72.550781 87.515625 72.03125 87.253906 71.566406 C 86.988281 71.089844 86.507812 70.722656 86.015625 70.503906 C 85.484375 70.269531 84.898438 70.164062 84.316406 70.1875 C 83.792969 70.207031 83.285156 70.363281 82.78125 70.492188 C 82.730469 70.503906 82.679688 70.515625 82.628906 70.53125 C 82.625 70.53125 82.605469 70.535156 82.585938 70.539062 C 82.441406 70.570312 82.300781 70.597656 82.15625 70.636719 C 81.992188 70.675781 81.828125 70.726562 81.667969 70.78125 C 81.339844 70.894531 81.015625 71.03125 80.683594 71.125 C 80.636719 71.136719 80.59375 71.148438 80.550781 71.160156 C 80.546875 71.160156 80.546875 71.160156 80.546875 71.160156 C 80.449219 71.179688 80.355469 71.195312 80.261719 71.203125 C 80.066406 71.226562 79.875 71.230469 79.679688 71.226562 C 79.519531 71.214844 79.359375 71.199219 79.199219 71.179688 C 79.101562 71.167969 79.003906 71.15625 78.90625 71.171875 C 78.738281 71.1875 78.566406 71.222656 78.410156 71.285156 C 77.875 71.03125 77.335938 70.773438 76.804688 70.519531 C 77.109375 70.40625 77.402344 70.25 77.648438 70.042969 C 78.046875 69.699219 78.335938 69.257812 78.421875 68.726562 C 78.511719 68.199219 78.394531 67.679688 78.132812 67.214844 C 77.867188 66.738281 77.390625 66.371094 76.894531 66.152344 C 76.363281 65.917969 75.777344 65.816406 75.195312 65.835938 C 74.675781 65.855469 74.167969 66.011719 73.664062 66.140625 C 73.613281 66.15625 73.5625 66.167969 73.511719 66.179688 C 73.503906 66.183594 73.484375 66.1875 73.46875 66.191406 C 73.324219 66.21875 73.179688 66.246094 73.035156 66.285156 C 72.871094 66.324219 72.710938 66.375 72.550781 66.429688 C 72.21875 66.542969 71.898438 66.679688 71.5625 66.773438 C 71.519531 66.785156 71.476562 66.796875 71.429688 66.808594 C 71.429688 66.808594 71.425781 66.808594 71.425781 66.808594 C 71.332031 66.828125 71.238281 66.84375 71.140625 66.851562 C 70.949219 66.875 70.753906 66.878906 70.5625 66.875 C 70.398438 66.863281 70.242188 66.847656 70.082031 66.828125 C 69.980469 66.816406 69.886719 66.804688 69.785156 66.820312 C 69.601562 66.839844 69.414062 66.875 69.242188 66.953125 C 68.902344 67.097656 68.621094 67.363281 68.566406 67.753906 Z M 68.566406 67.753906 " fill-opacity="1" fill-rule="nonzero"/></g></g></g><g clip-path="url(#3506eeb9f0)"><path fill="#ffffff" d="M 81.390625 61.398438 C 81.523438 61.050781 81.644531 60.699219 81.800781 60.359375 C 81.882812 60.179688 81.972656 60 82.082031 59.832031 C 82.175781 59.679688 82.140625 59.589844 82.226562 59.457031 C 82.308594 59.328125 82.363281 59.378906 82.472656 59.210938 C 82.578125 59.042969 82.691406 58.882812 82.808594 58.726562 C 82.925781 58.570312 83.050781 58.417969 83.171875 58.265625 C 83.296875 58.105469 83.324219 57.933594 83.445312 57.785156 C 83.746094 57.40625 84.113281 57.035156 84.097656 56.527344 C 84.074219 55.84375 84.179688 55.230469 84.3125 54.527344 C 84.617188 52.929688 85.160156 51.378906 85.964844 49.960938 C 86.308594 49.355469 86.699219 48.71875 87.179688 48.246094 C 87.386719 48.042969 87.515625 47.789062 87.730469 47.578125 C 87.851562 47.460938 87.980469 47.40625 88.101562 47.28125 C 88.25 47.132812 88.339844 46.910156 88.535156 46.808594 C 88.835938 46.660156 89.105469 46.484375 89.3125 46.210938 C 89.417969 46.070312 89.808594 45.792969 89.988281 45.773438 C 90.0625 45.625 90.425781 45.382812 90.582031 45.339844 C 90.773438 45.289062 91.054688 45.09375 91.261719 44.984375 C 91.6875 44.753906 92.148438 44.503906 92.628906 44.398438 C 93.199219 44.273438 93.730469 44.023438 94.320312 44.015625 C 94.363281 43.929688 94.8125 43.886719 94.894531 43.886719 C 95.097656 43.886719 95.347656 43.832031 95.523438 43.832031 C 96.019531 43.832031 96.40625 43.695312 96.949219 43.667969 C 97.355469 43.648438 97.90625 43.675781 98.203125 43.730469 C 98.917969 43.964844 99.675781 44.183594 100.421875 44.390625 C 101.265625 44.625 102.175781 44.800781 102.960938 45.207031 C 103.136719 45.296875 103.25 45.351562 103.367188 45.492188 C 103.667969 45.585938 103.769531 45.871094 104.042969 45.976562 C 104.148438 45.875 105.511719 47.046875 105.476562 47.226562 C 105.464844 47.308594 105.769531 47.523438 105.824219 47.601562 C 105.960938 47.800781 106.195312 47.949219 106.308594 48.140625 C 106.417969 48.328125 106.539062 48.363281 106.652344 48.542969 C 106.734375 48.675781 106.929688 48.824219 106.984375 48.949219 C 107.191406 49.421875 107.65625 49.886719 107.960938 50.335938 C 108.117188 50.570312 108.277344 50.804688 108.445312 51.03125 C 108.738281 51.425781 108.695312 50.894531 108.957031 50.789062 C 108.917969 50.609375 109.121094 50.492188 109.179688 50.335938 C 109.28125 50.085938 109.445312 49.859375 109.628906 49.660156 C 109.886719 49.390625 109.660156 48.855469 109.660156 48.488281 C 109.558594 48.472656 109.535156 47.921875 109.527344 47.851562 C 109.488281 47.378906 109.542969 46.976562 109.636719 46.597656 C 109.734375 46.207031 109.890625 45.808594 109.992188 45.46875 C 110.136719 44.96875 110.480469 44.4375 110.339844 43.894531 C 110.472656 43.902344 110.421875 43.804688 110.398438 43.6875 C 110.351562 43.414062 110.5 43.382812 110.464844 43.152344 C 110.4375 42.933594 110.496094 42.785156 110.496094 42.574219 C 110.496094 42.332031 110.621094 41.996094 110.660156 41.734375 C 110.769531 41.054688 110.933594 40.394531 111.054688 39.722656 C 111.167969 39.332031 111.332031 38.683594 111.589844 38.242188 C 111.929688 37.660156 112.070312 36.894531 112.292969 36.253906 C 112.480469 35.710938 112.632812 35.121094 112.816406 34.605469 C 113 34.089844 113.203125 33.558594 113.378906 33.03125 C 113.605469 32.359375 113.804688 31.664062 114.070312 31.003906 C 114.238281 30.570312 114.367188 30.058594 114.476562 29.605469 C 114.605469 29.097656 114.769531 28.582031 114.929688 28.085938 C 115.375 26.71875 115.777344 25.339844 116.234375 23.976562 C 116.4375 23.375 116.597656 22.738281 116.855469 22.15625 C 116.890625 22.082031 116.964844 21.632812 117.097656 21.632812 C 117.308594 21.632812 117.207031 22.082031 117.148438 22.152344 C 116.984375 22.355469 116.941406 22.789062 116.875 23.050781 C 116.785156 23.402344 116.699219 23.753906 116.617188 24.109375 C 116.53125 24.480469 116.457031 25.554688 116.230469 25.75 C 115.78125 27.964844 115.277344 30.226562 115.046875 32.480469 C 115.035156 32.472656 115.019531 32.464844 115.007812 32.460938 C 114.960938 32.839844 114.917969 33.222656 114.800781 33.585938 C 114.964844 33.855469 115.304688 32.78125 115.339844 32.625 C 115.457031 32.074219 115.664062 31.550781 115.84375 31.023438 C 116.015625 30.511719 116.070312 29.964844 116.210938 29.4375 C 116.375 28.828125 116.480469 28.238281 116.652344 27.59375 C 116.769531 27.160156 116.882812 26.726562 117.003906 26.289062 C 116.972656 26.066406 117.121094 25.65625 117.328125 25.550781 C 117.332031 25.761719 117.367188 26.285156 117.167969 26.429688 C 117.148438 26.652344 117.042969 27.445312 116.933594 27.5 C 116.800781 28.34375 116.652344 29.089844 116.511719 29.890625 C 116.457031 30.195312 116.285156 32.214844 116.210938 32.21875 C 116.195312 32.558594 116.207031 32.792969 116.125 33.125 C 116.042969 33.460938 116.046875 33.703125 116 34.070312 C 115.949219 34.457031 115.90625 34.804688 115.863281 35.171875 C 115.851562 35.28125 115.617188 36.320312 115.726562 36.320312 C 115.886719 36.320312 116.003906 35.757812 116.046875 35.640625 C 116.179688 35.285156 116.382812 34.988281 116.421875 34.582031 C 116.441406 34.390625 116.5625 34.1875 116.609375 33.988281 C 116.667969 33.746094 116.730469 33.503906 116.789062 33.257812 C 116.835938 33.058594 116.84375 32.210938 116.945312 32.179688 C 116.941406 32.09375 116.898438 31.535156 116.960938 31.535156 C 117.015625 31.535156 117.117188 30.9375 117.128906 30.851562 C 117.160156 30.628906 117.082031 29.664062 117.449219 29.722656 C 117.433594 31.363281 117.015625 32.75 117.074219 34.398438 C 117.082031 34.542969 116.980469 34.640625 116.980469 34.824219 C 116.980469 35.039062 116.992188 35.253906 116.976562 35.472656 C 116.972656 35.6875 117.003906 35.914062 116.980469 36.132812 C 116.925781 36.757812 116.859375 37.421875 116.863281 38.109375 C 117.203125 37.957031 117.226562 37.25 117.222656 36.929688 C 117.21875 36.46875 117.171875 35.957031 117.226562 35.5 C 117.253906 35.25 117.257812 34.054688 117.621094 33.980469 C 117.765625 34.15625 117.683594 34.703125 117.683594 34.980469 C 117.683594 35.761719 117.683594 36.542969 117.683594 37.324219 C 117.683594 38.320312 117.570312 39.128906 117.625 40.113281 C 117.835938 40.105469 117.667969 39.226562 117.761719 39.019531 C 117.933594 38.957031 117.992188 39.132812 117.988281 39.28125 C 117.980469 39.46875 118.007812 39.683594 118.03125 39.882812 C 118.226562 39.976562 118.058594 40.433594 118.074219 40.609375 C 118.109375 40.992188 118.167969 41.375 118.226562 41.789062 C 118.265625 42.050781 118.394531 42.328125 118.300781 42.585938 C 118.304688 42.644531 118.359375 42.644531 118.382812 42.703125 C 118.453125 42.855469 118.367188 43.050781 118.410156 43.21875 C 118.460938 43.402344 118.476562 43.59375 118.507812 43.777344 C 118.617188 43.828125 118.742188 43.832031 118.832031 43.917969 C 118.972656 44.066406 119 44.617188 119.042969 44.820312 C 119.246094 45.761719 119.425781 46.714844 119.738281 47.625 C 120.074219 48.1875 120.253906 48.695312 120.464844 49.292969 C 120.683594 49.902344 121.046875 50.675781 121.125 51.3125 C 121.519531 51.167969 121.597656 50.722656 121.902344 50.519531 C 122.238281 50.292969 122.210938 50.007812 122.605469 49.855469 C 122.59375 49.84375 122.574219 49.832031 122.558594 49.808594 C 122.800781 49.335938 123.476562 48.894531 123.863281 48.496094 C 124.011719 48.347656 124.175781 48.292969 124.308594 48.175781 C 124.445312 48.058594 124.535156 47.871094 124.6875 47.738281 C 124.75 47.679688 125.261719 47.128906 125.320312 47.214844 C 125.582031 47.015625 125.675781 46.738281 125.933594 46.574219 C 126.148438 46.4375 126.34375 46.199219 126.53125 46.023438 C 126.835938 45.730469 127.414062 45.53125 127.589844 45.128906 C 128.140625 43.855469 128.046875 42.472656 128.914062 41.300781 C 129.417969 40.792969 129.894531 40.152344 130.3125 39.617188 C 130.535156 39.332031 130.835938 39.121094 131.066406 38.847656 C 131.375 38.484375 131.632812 38.066406 131.886719 37.664062 C 132.347656 36.949219 132.808594 36.238281 133.292969 35.542969 C 133.546875 35.175781 133.808594 34.816406 134.066406 34.457031 C 134.15625 34.332031 134.601562 33.566406 134.722656 33.585938 C 134.753906 33.589844 135.113281 33.015625 135.164062 32.949219 C 135.410156 32.625 135.652344 32.296875 135.898438 31.972656 C 136.164062 31.628906 136.433594 31.289062 136.730469 30.972656 C 136.828125 30.84375 136.957031 30.632812 137.113281 30.496094 C 137.210938 30.03125 137.910156 29.636719 138.210938 29.300781 C 138.496094 28.984375 138.769531 28.664062 139.039062 28.339844 C 139.078125 28.191406 139.195312 28.023438 139.359375 27.992188 C 139.449219 27.890625 139.414062 27.785156 139.53125 27.679688 C 139.894531 27.371094 140.09375 27 140.421875 26.683594 C 140.566406 26.542969 140.757812 26.378906 140.894531 26.222656 C 141.054688 26.035156 141.132812 25.777344 141.390625 25.648438 C 141.5625 25.417969 141.761719 25.097656 141.964844 24.894531 C 142.078125 24.785156 142.179688 24.746094 142.273438 24.625 C 142.355469 24.519531 142.40625 24.390625 142.507812 24.296875 C 142.59375 24.214844 142.707031 24.1875 142.78125 24.097656 C 142.78125 23.867188 143.03125 23.714844 143.207031 23.621094 C 143.296875 23.511719 143.285156 23.40625 143.378906 23.304688 C 143.5 23.175781 143.648438 23.121094 143.773438 22.988281 C 143.78125 22.824219 144.097656 22.457031 144.246094 22.441406 C 144.242188 22.199219 144.585938 22.050781 144.683594 21.859375 C 144.746094 21.738281 144.863281 21.648438 144.972656 21.578125 C 145.109375 21.492188 145.089844 21.335938 145.234375 21.226562 C 145.566406 20.972656 145.886719 20.550781 146.171875 20.222656 C 146.304688 20.074219 146.445312 19.929688 146.574219 19.78125 C 146.550781 19.648438 146.652344 19.550781 146.753906 19.484375 C 147.058594 19.292969 146.832031 19.410156 147.03125 19.140625 C 147.125 19.015625 147.277344 18.96875 147.386719 18.847656 C 147.378906 18.71875 147.472656 18.613281 147.566406 18.539062 C 147.671875 18.457031 147.820312 18.144531 147.957031 18.144531 C 148.222656 18.144531 148.097656 17.714844 148.40625 17.671875 C 148.585938 17.4375 148.753906 17.246094 148.890625 17.003906 C 148.976562 16.847656 149.097656 16.792969 149.1875 16.644531 C 149.277344 16.496094 149.386719 16.445312 149.472656 16.304688 C 149.582031 16.121094 149.847656 15.917969 149.988281 15.757812 C 150.308594 15.398438 150.695312 14.957031 150.925781 14.558594 C 151.042969 14.359375 151.355469 14.101562 151.519531 13.9375 C 151.519531 13.757812 151.730469 13.664062 151.839844 13.542969 C 152.035156 13.292969 152.289062 13.054688 152.417969 12.78125 C 152.460938 12.691406 152.859375 12.269531 152.9375 12.25 C 152.925781 12.121094 153.023438 12.015625 153.121094 11.953125 C 153.257812 11.859375 153.21875 11.753906 153.355469 11.65625 C 153.589844 11.488281 153.8125 11.164062 153.9375 10.914062 C 154.027344 10.730469 154.246094 10.5625 154.355469 10.371094 C 154.429688 10.246094 154.519531 10.199219 154.589844 10.078125 C 154.640625 9.996094 154.710938 9.941406 154.800781 9.914062 C 154.8125 9.792969 154.867188 9.699219 154.964844 9.628906 C 155.195312 9.464844 155.226562 9.230469 155.421875 9.0625 C 155.632812 8.875 155.746094 8.605469 155.933594 8.429688 C 156.289062 8.101562 156.488281 7.738281 156.820312 7.390625 C 156.914062 7.257812 157.0625 7.097656 157.203125 6.9375 C 157.351562 6.765625 157.394531 6.574219 157.601562 6.460938 C 157.695312 6.292969 157.90625 5.972656 158.046875 5.851562 C 158.597656 5.375 159.011719 4.695312 159.480469 4.128906 C 159.871094 3.65625 160.226562 3.199219 160.601562 2.710938 C 160.839844 2.398438 162.640625 0 162.996094 0.945312 C 162.9375 1.273438 162.914062 1.523438 162.820312 1.863281 C 162.785156 1.984375 162.644531 2.746094 162.554688 2.765625 C 162.480469 2.777344 162.3125 3.59375 162.269531 3.714844 C 162.136719 4.113281 161.992188 4.503906 161.878906 4.910156 C 161.539062 5.898438 160.976562 6.917969 160.4375 7.871094 C 160.078125 8.496094 159.554688 9.113281 159.28125 9.769531 C 159.238281 9.875 158.960938 10.386719 158.851562 10.390625 C 158.660156 10.765625 158.417969 11.117188 158.152344 11.445312 C 157.394531 12.773438 156.453125 14.109375 155.515625 15.324219 C 155.15625 15.789062 154.765625 16.261719 154.488281 16.765625 C 154.433594 16.863281 154.347656 16.96875 154.226562 16.984375 C 154.210938 17.109375 154.15625 17.230469 154.0625 17.324219 C 153.945312 17.441406 153.839844 17.585938 153.785156 17.753906 C 153.878906 17.75 154.1875 17.359375 154.261719 17.289062 C 154.46875 17.078125 154.679688 16.871094 154.886719 16.664062 C 155.300781 16.25 155.714844 15.835938 156.125 15.421875 C 156.667969 14.878906 157.269531 14.367188 157.761719 13.8125 C 157.828125 13.609375 158.011719 13.453125 158.179688 13.328125 C 158.308594 13.230469 158.363281 13.050781 158.535156 13.007812 C 158.519531 12.757812 158.972656 12.417969 159.171875 12.308594 C 159.175781 12.125 159.355469 11.988281 159.492188 11.894531 C 159.648438 11.792969 159.730469 11.617188 159.875 11.492188 C 160.128906 11.273438 160.273438 11.027344 160.554688 10.816406 C 160.558594 10.832031 160.558594 10.851562 160.5625 10.867188 C 160.753906 10.65625 160.808594 10.410156 161.070312 10.226562 C 161.074219 10.261719 161.078125 10.300781 161.082031 10.339844 C 161.394531 9.957031 161.574219 9.523438 161.984375 9.203125 C 162.09375 9.121094 162.148438 9 162.265625 8.871094 C 162.371094 8.757812 162.480469 8.632812 162.628906 8.574219 C 162.703125 8.484375 162.679688 8.382812 162.765625 8.289062 C 162.945312 8.097656 163.15625 7.898438 163.351562 7.714844 C 163.503906 7.574219 163.621094 7.414062 163.730469 7.289062 C 163.917969 7.136719 164.207031 6.90625 164.355469 6.726562 C 164.53125 6.507812 164.671875 6.171875 164.964844 6.066406 C 165.402344 5.523438 165.898438 4.996094 166.523438 4.667969 C 166.628906 4.613281 167.121094 4.347656 167.089844 4.707031 C 167.117188 4.746094 167.246094 5.121094 167.078125 5.214844 C 166.9375 5.796875 166.675781 6.367188 166.453125 6.921875 C 166.144531 7.691406 165.882812 8.488281 165.480469 9.214844 C 165.320312 9.496094 165.273438 9.742188 165.023438 9.988281 C 165.078125 10.195312 164.644531 10.644531 164.527344 10.828125 C 164.109375 11.492188 163.640625 12.152344 163.160156 12.773438 C 162.722656 13.34375 162.222656 13.941406 161.859375 14.539062 C 161.765625 14.691406 161.589844 14.8125 161.484375 14.949219 C 161.480469 15.058594 161.125 15.503906 161.019531 15.527344 C 160.992188 15.722656 160.820312 15.808594 160.6875 15.953125 C 160.523438 16.136719 160.308594 16.613281 160.078125 16.707031 C 159.957031 16.972656 159.714844 17.175781 159.535156 17.402344 C 159.363281 17.617188 159.117188 17.898438 158.90625 18.136719 C 158.808594 18.246094 158.679688 18.316406 158.597656 18.429688 C 158.507812 18.558594 158.53125 18.675781 158.394531 18.78125 C 158.242188 18.894531 158.121094 19.222656 157.921875 19.253906 C 157.902344 19.445312 157.554688 19.746094 157.382812 19.839844 C 157.328125 20.015625 157.070312 20.285156 156.933594 20.394531 C 156.757812 20.53125 156.597656 20.738281 156.480469 20.921875 C 156.722656 20.886719 157.035156 20.519531 157.222656 20.375 C 157.507812 20.15625 157.855469 19.957031 158.066406 19.664062 C 158.117188 19.59375 158.484375 19.296875 158.5625 19.296875 C 158.703125 19.296875 159.039062 18.84375 159.234375 18.777344 C 159.28125 18.605469 159.609375 18.441406 159.75 18.324219 C 159.90625 18.203125 160.070312 18.085938 160.214844 17.957031 C 160.339844 17.730469 160.585938 17.644531 160.746094 17.441406 C 160.941406 17.191406 161.214844 17.105469 161.402344 16.84375 C 161.546875 16.640625 161.738281 16.640625 161.875 16.4375 C 161.964844 16.304688 162.105469 16.183594 162.261719 16.144531 C 162.304688 16.046875 162.390625 15.941406 162.5 15.917969 C 162.570312 15.695312 162.800781 15.601562 162.992188 15.507812 C 163.128906 15.390625 163.21875 15.167969 163.398438 15.050781 C 163.664062 14.871094 163.804688 14.644531 164.039062 14.433594 C 164.25 14.246094 164.457031 14.164062 164.613281 13.929688 C 164.78125 13.679688 165.078125 13.601562 165.242188 13.355469 C 165.320312 13.238281 165.453125 13.152344 165.582031 13.101562 C 165.667969 12.96875 165.859375 12.773438 165.976562 12.667969 C 166.03125 12.621094 166.335938 12.355469 166.410156 12.355469 C 166.484375 12.152344 166.804688 11.925781 166.992188 11.84375 C 167.035156 11.628906 167.398438 11.601562 167.398438 11.476562 C 167.398438 11.304688 167.835938 10.988281 167.988281 10.964844 C 168.277344 10.425781 168.910156 10.15625 169.257812 9.695312 C 169.292969 9.652344 169.449219 9.46875 169.519531 9.589844 C 169.65625 9.476562 169.796875 9.371094 169.949219 9.28125 C 170.0625 9.21875 170.289062 8.984375 170.359375 8.957031 C 171.5625 8.519531 170.214844 11.191406 170.085938 11.480469 C 169.832031 12.03125 169.550781 12.582031 169.371094 13.144531 C 169.265625 13.460938 169.066406 13.738281 168.921875 14.03125 C 168.828125 14.210938 168.589844 14.625 168.421875 14.722656 C 168.277344 15.148438 167.828125 15.621094 167.539062 15.964844 C 167.410156 16.117188 167.316406 16.25 167.21875 16.410156 C 167.167969 16.492188 167.097656 16.546875 167.007812 16.574219 C 167.023438 16.707031 166.914062 16.796875 166.820312 16.867188 C 166.507812 17.109375 166.378906 17.617188 166.023438 17.808594 C 166.003906 17.898438 165.816406 18.085938 165.730469 18.109375 C 165.730469 18.269531 165.5 18.445312 165.394531 18.535156 C 165.179688 18.722656 164.976562 18.972656 164.789062 19.207031 C 164.703125 19.3125 164.585938 19.285156 164.515625 19.378906 C 164.507812 19.535156 164.214844 19.804688 164.09375 19.894531 C 163.742188 20.160156 163.433594 20.617188 163.105469 20.945312 C 162.78125 21.269531 162.269531 21.617188 162.070312 22.015625 C 162.875 21.640625 163.644531 20.984375 164.359375 20.433594 C 165.199219 19.785156 166.078125 19.171875 166.9375 18.523438 C 168.085938 17.660156 169.257812 16.863281 170.394531 15.976562 C 170.636719 15.785156 170.867188 15.585938 171.113281 15.40625 C 171.347656 15.234375 171.640625 14.949219 171.914062 14.859375 C 172.195312 14.761719 172.726562 14.511719 172.917969 14.855469 C 173.066406 15.128906 172.757812 15.625 172.671875 15.859375 C 172.484375 16.386719 172.195312 16.859375 171.964844 17.34375 C 171.382812 18.582031 170.859375 19.621094 170 20.664062 C 169.933594 20.90625 169.660156 21.066406 169.527344 21.277344 C 169.445312 21.40625 169.1875 21.703125 169.074219 21.8125 C 168.691406 22.195312 168.234375 22.542969 167.863281 22.914062 C 167.582031 23.199219 167.320312 23.496094 166.972656 23.707031 C 166.820312 23.800781 166.742188 24.054688 166.539062 24.058594 C 166.449219 24.136719 166.238281 24.339844 166.207031 24.457031 C 166.496094 24.359375 166.8125 24.234375 167.089844 24.058594 C 167.089844 24.078125 167.089844 24.097656 167.089844 24.121094 C 167.984375 23.6875 168.867188 23.246094 169.859375 22.964844 C 170.164062 22.878906 169.972656 22.871094 170.191406 22.851562 C 170.449219 22.828125 170.546875 22.863281 170.753906 22.914062 C 171.171875 23.019531 171.105469 23.292969 171.105469 23.644531 C 171.109375 24.003906 170.867188 24.480469 170.722656 24.871094 C 170.472656 25.546875 170.261719 26.238281 169.996094 26.910156 C 169.878906 27.207031 169.746094 27.5 169.570312 27.773438 C 169.609375 27.902344 169.421875 28.191406 169.347656 28.289062 C 169.1875 28.503906 168.773438 28.914062 168.730469 29.097656 C 168.652344 29.308594 168.476562 29.554688 168.230469 29.582031 C 168.1875 29.742188 167.609375 30.179688 167.429688 30.21875 C 167.230469 30.339844 167.046875 30.472656 166.851562 30.59375 C 166.703125 30.683594 166.546875 30.851562 166.40625 30.910156 C 166.167969 31.007812 165.613281 31.199219 165.570312 31.414062 C 166.039062 31.441406 166.570312 31.285156 167.03125 31.191406 C 167.246094 31.148438 167.355469 31.066406 167.558594 31.070312 C 167.9375 31.074219 168.34375 30.96875 168.710938 31.074219 C 168.816406 31.105469 169.128906 31.246094 169.25 31.359375 C 169.519531 31.601562 169.476562 31.847656 169.460938 32.175781 C 169.4375 32.660156 169.203125 33.355469 169.03125 33.910156 C 168.835938 34.539062 168.691406 35.175781 168.492188 35.800781 C 168.375 36.171875 168.238281 36.535156 168.0625 36.882812 C 167.9375 37.132812 167.8125 37.539062 167.636719 37.75 C 167.464844 37.953125 167.316406 38.308594 167.070312 38.449219 C 167 38.648438 166.695312 38.789062 166.546875 38.964844 C 167.054688 39.183594 167.636719 39.527344 167.8125 40.078125 C 168.019531 40.710938 168.347656 41.425781 168.3125 42.09375 C 168.445312 42.167969 168.371094 42.886719 168.367188 43.089844 C 168.367188 43.25 168.449219 43.75 168.359375 43.855469 C 168.222656 44.015625 168.207031 44.636719 168.148438 44.898438 C 168.058594 45.285156 167.992188 45.59375 167.808594 45.925781 C 167.542969 46.40625 167.34375 46.621094 166.769531 46.855469 C 166.21875 47.269531 165.0625 47.027344 164.335938 47.039062 C 164.339844 47.21875 165.214844 47.578125 165.414062 47.679688 C 165.597656 47.777344 165.683594 47.949219 165.847656 48.074219 C 166.046875 48.21875 166.308594 48.5 166.386719 48.742188 C 166.507812 49.097656 166.5625 49.476562 166.605469 49.902344 C 166.617188 49.976562 166.726562 50.125 166.730469 50.140625 C 166.785156 50.371094 166.746094 50.710938 166.730469 50.945312 C 166.671875 51.839844 166.417969 53.054688 165.890625 53.957031 C 165.757812 54.183594 165.535156 54.40625 165.335938 54.570312 C 165.230469 54.65625 164.574219 54.742188 164.574219 54.824219 C 164.574219 54.898438 163.230469 54.726562 163.046875 54.785156 C 163.136719 54.824219 163.191406 54.894531 163.214844 54.992188 C 163.378906 55.09375 163.53125 55.21875 163.664062 55.359375 C 163.859375 55.5625 163.988281 55.800781 164.183594 55.992188 C 164.351562 56.148438 164.496094 56.8125 164.460938 57.027344 C 164.570312 57.089844 164.460938 58.476562 164.367188 58.472656 C 164.421875 58.472656 163.722656 60.460938 163.5625 60.664062 C 163.257812 60.933594 162.992188 61.359375 162.589844 61.496094 C 162.417969 61.566406 162.035156 61.5625 161.757812 61.5625 C 161.46875 61.558594 161.289062 61.460938 160.972656 61.382812 C 160.507812 61.265625 159.9375 60.820312 159.453125 60.855469 C 159.769531 61.273438 160.3125 61.507812 160.589844 61.972656 C 160.683594 62.125 161.375 63.09375 161.078125 63.292969 C 161.074219 63.457031 161.113281 63.410156 161.125 63.5625 C 161.152344 63.820312 161.089844 63.945312 161.082031 64.164062 C 161.078125 64.289062 160.894531 64.621094 160.839844 64.769531 C 160.734375 65.046875 160.582031 65.347656 160.367188 65.558594 C 160.160156 65.769531 159.953125 65.9375 159.6875 66.09375 C 159.496094 66.207031 159.167969 66.414062 158.941406 66.394531 C 158.847656 66.429688 158.796875 66.53125 158.679688 66.53125 C 158.113281 66.53125 158.480469 66.585938 158.507812 66.996094 C 158.578125 68.160156 157.503906 68.949219 156.457031 69.28125 C 156.355469 69.3125 155.832031 69.339844 155.804688 69.402344 C 155.667969 69.519531 155.785156 69.957031 155.730469 70.125 C 155.523438 70.757812 154.917969 71.070312 154.3125 71.261719 C 153.894531 71.390625 153.554688 71.4375 153.105469 71.460938 C 152.890625 71.636719 152.886719 71.894531 152.777344 72.117188 C 152.652344 72.386719 152.136719 72.675781 151.84375 72.703125 C 151.359375 73.011719 150.804688 73.003906 150.25 72.992188 C 149.992188 72.984375 149.875 72.929688 149.679688 72.898438 C 149.496094 72.863281 149.457031 73.011719 149.394531 73.160156 C 149.296875 73.394531 149.183594 73.480469 148.957031 73.578125 C 148.625 73.726562 148.179688 73.867188 147.882812 73.867188 C 147.765625 73.871094 147.085938 73.902344 147.085938 73.839844 C 147.085938 73.78125 146.957031 73.8125 146.921875 73.808594 C 146.679688 73.804688 146.742188 74.003906 146.5625 74.152344 C 146.257812 74.398438 144.84375 74.699219 144.636719 74.378906 C 144.386719 74.453125 144.03125 74.320312 143.78125 74.25 C 143.398438 74.144531 143.078125 74.304688 142.703125 74.328125 C 142.683594 74.453125 142.46875 74.394531 142.34375 74.394531 C 142.007812 74.390625 141.945312 74.355469 141.863281 74.675781 C 142.007812 74.875 142.097656 75.234375 142.195312 75.472656 C 142.273438 75.664062 142.34375 75.628906 142.425781 75.792969 C 142.515625 75.964844 142.53125 76.179688 142.628906 76.375 C 142.804688 76.726562 142.972656 77.085938 143.140625 77.441406 C 143.226562 77.621094 143.3125 77.800781 143.398438 77.976562 C 143.480469 78.144531 143.636719 78.230469 143.675781 78.417969 C 143.730469 78.699219 143.839844 78.988281 143.960938 79.195312 C 144.074219 79.238281 144.128906 79.382812 144.148438 79.488281 C 144.175781 79.65625 144.300781 79.738281 144.324219 79.917969 C 144.363281 80.285156 144.597656 80.574219 144.738281 80.914062 C 144.796875 81.058594 144.785156 81.253906 144.847656 81.386719 C 144.929688 81.664062 145.335938 81.78125 145.25 82.140625 C 145.308594 82.269531 145.429688 82.359375 145.511719 82.53125 C 145.707031 82.941406 145.824219 83.414062 146.074219 83.796875 C 146.296875 84.136719 146.511719 84.296875 146.796875 84.542969 C 147.054688 84.761719 147.171875 85.046875 147.417969 85.28125 C 147.691406 85.539062 147.917969 85.832031 148.179688 86.097656 C 148.828125 86.746094 149.445312 87.425781 150.070312 88.097656 C 151.039062 89.132812 152.019531 90.167969 153.039062 91.191406 C 153.425781 91.582031 153.792969 91.949219 154.1875 92.351562 C 154.699219 92.863281 155.183594 93.28125 155.679688 93.78125 C 156.152344 94.253906 156.632812 94.800781 157.097656 95.242188 C 157.535156 95.519531 157.734375 96.003906 158.140625 96.296875 C 158.398438 96.574219 159.128906 97.015625 159.039062 97.429688 C 158.4375 97.441406 158.144531 97.359375 157.574219 97.191406 C 157.210938 97.085938 156.777344 97.019531 156.433594 96.878906 C 156.175781 96.769531 155.863281 96.714844 155.625 96.535156 C 155.515625 96.570312 155.199219 96.382812 155.152344 96.296875 C 155.09375 96.191406 154.4375 95.785156 154.332031 95.789062 C 153.996094 95.804688 154.347656 96.277344 154.394531 96.273438 C 154.460938 96.269531 154.425781 96.605469 154.425781 96.679688 C 154.210938 96.71875 154.136719 96.613281 153.988281 96.480469 C 153.835938 96.566406 153.890625 96.90625 153.605469 96.75 C 153.316406 96.589844 153.476562 96.558594 153.269531 96.664062 C 153.34375 96.9375 152.800781 96.59375 152.757812 96.601562 C 152.707031 96.664062 152.777344 96.847656 152.796875 96.917969 C 152.613281 96.914062 152.550781 96.894531 152.417969 96.777344 C 152.34375 96.710938 152.246094 96.480469 152.132812 96.664062 C 152.082031 96.753906 152.117188 96.894531 152.160156 96.980469 C 151.839844 96.957031 151.878906 96.777344 151.539062 96.941406 C 151.289062 97.058594 151.265625 96.726562 151.167969 96.714844 C 151 96.699219 150.933594 96.898438 150.921875 96.902344 C 150.429688 96.996094 150.148438 96.183594 149.921875 95.882812 C 149.6875 95.574219 149.445312 95.269531 149.207031 94.960938 C 148.996094 94.6875 148.667969 94.402344 148.5 94.117188 C 147.847656 93.003906 146.78125 91.984375 146.007812 90.898438 C 145.625 90.363281 145.027344 89.875 144.710938 89.3125 C 144.539062 89 144.304688 88.960938 144.066406 88.746094 C 143.917969 88.742188 143.648438 88.640625 143.597656 88.558594 C 143.125 88.632812 142.578125 88.035156 142.117188 88.035156 C 141.847656 88.035156 141.589844 87.789062 141.34375 87.699219 C 141.207031 87.648438 141.050781 87.578125 140.972656 87.449219 C 140.855469 87.371094 140.710938 87.410156 140.613281 87.304688 C 140.488281 87.175781 140.269531 87.050781 140.089844 86.953125 C 139.921875 86.863281 139.476562 86.683594 139.398438 86.507812 C 139.25 86.550781 139.007812 86.324219 138.871094 86.265625 C 138.679688 86.183594 138.511719 85.957031 138.328125 85.914062 C 137.878906 85.816406 137.53125 85.3125 137.082031 85.199219 C 136.847656 85.144531 136.527344 84.929688 136.347656 84.765625 C 136.082031 84.519531 135.914062 84.449219 135.722656 84.132812 C 135.53125 83.820312 135.378906 83.753906 135.105469 84.042969 C 134.875 84.285156 134.652344 84.554688 134.355469 84.71875 C 134.25 84.816406 134.164062 84.976562 134.039062 85.058594 C 133.828125 85.191406 133.902344 85.1875 133.902344 85.449219 C 133.898438 85.554688 133.882812 85.671875 133.894531 85.777344 C 133.90625 85.867188 133.957031 86.257812 133.953125 86.445312 C 133.917969 86.605469 133.867188 86.652344 133.792969 86.851562 C 133.5625 87.449219 133.089844 87.585938 132.621094 87.894531 C 132.375 88.058594 131.949219 88.128906 131.667969 88.167969 C 131.214844 88.234375 130.789062 88.347656 130.273438 88.417969 C 128.621094 88.632812 127.078125 88.773438 125.46875 88.800781 C 124.691406 88.8125 124.085938 88.890625 123.324219 88.855469 C 122.929688 88.835938 122.617188 88.890625 122.222656 88.886719 C 121.539062 88.984375 122.234375 89.449219 122.394531 89.738281 C 122.578125 90.066406 122.867188 90.246094 123.144531 90.515625 C 123.246094 90.609375 123.339844 90.710938 123.429688 90.816406 C 123.699219 91.148438 123.503906 90.847656 123.660156 90.980469 C 123.828125 91.117188 124.09375 91.308594 124.199219 91.503906 C 124.597656 91.613281 124.554688 92.046875 124.582031 92.351562 C 124.609375 92.617188 124.652344 92.875 124.679688 93.136719 C 124.875 93.25 124.695312 93.691406 124.746094 93.875 C 124.664062 93.886719 124.394531 94.359375 124.292969 94.460938 C 124.207031 94.542969 123.953125 94.753906 123.839844 94.765625 C 123.707031 94.949219 123.46875 94.597656 123.703125 94.550781 C 123.902344 94.328125 124.054688 93.980469 124.050781 93.6875 C 124.042969 93.398438 123.953125 93.351562 123.886719 93.078125 C 123.777344 92.625 122.921875 92.808594 123 92.175781 C 122.953125 92.128906 122.859375 91.867188 122.777344 91.722656 C 122.632812 91.476562 122.414062 91.328125 122.207031 91.132812 C 121.816406 90.753906 121.3125 90.050781 120.699219 90.082031 C 119.960938 90.113281 119.457031 90.589844 118.867188 91.015625 C 118.632812 91.183594 118.359375 91.480469 118.300781 91.75 C 118.214844 92.132812 118.011719 92.253906 117.800781 92.492188 C 117.746094 92.558594 117.644531 92.59375 117.5625 92.582031 C 117.5 92.707031 117.429688 92.832031 117.375 92.960938 C 117.441406 93.417969 117.371094 93.722656 117.609375 94.152344 C 117.78125 94.453125 117.855469 94.75 117.414062 94.4375 C 117.140625 94.242188 116.914062 93.976562 116.792969 93.660156 C 116.699219 93.417969 116.628906 93.277344 116.609375 93.027344 C 116.597656 92.886719 116.421875 92.9375 116.316406 92.933594 C 116.140625 92.921875 116.128906 93 116.039062 93.140625 C 116.082031 93.574219 116.015625 93.867188 116.277344 94.253906 C 116.421875 94.472656 116.527344 94.476562 116.59375 94.757812 C 116.335938 94.738281 115.863281 94.503906 115.691406 94.300781 C 115.460938 94.03125 115.398438 93.714844 115.300781 93.390625 C 115.0625 93.234375 115.386719 92.828125 115.410156 92.636719 C 115.253906 92.527344 115.351562 92.363281 115.441406 92.261719 C 115.601562 92.085938 115.511719 92.011719 115.503906 91.78125 C 115.5 91.652344 115.726562 91.3125 115.796875 91.199219 C 115.878906 91.066406 116.257812 90.972656 116.398438 90.886719 C 116.664062 90.714844 116.910156 90.675781 117.15625 90.445312 C 117.511719 90.113281 117.570312 89.398438 117.570312 88.960938 C 117.574219 88.527344 117.65625 87.992188 117.214844 87.800781 C 116.859375 87.640625 116.453125 87.503906 116.097656 87.652344 C 115.828125 87.761719 115.78125 88.132812 115.507812 88.265625 C 115.273438 88.644531 114.996094 88.992188 114.746094 89.363281 C 114.714844 89.414062 114.660156 89.578125 114.59375 89.65625 C 114.433594 89.851562 114.597656 90.171875 114.53125 90.433594 C 114.449219 90.75 113.917969 90.988281 113.949219 91.425781 C 113.972656 91.75 113.917969 91.828125 114.117188 92.117188 C 114.179688 92.210938 114.640625 92.621094 114.636719 92.6875 C 114.707031 92.96875 113.257812 92.589844 113.257812 92.679688 C 113.257812 92.667969 113.003906 92.550781 112.980469 92.539062 C 112.679688 92.421875 112.457031 92.160156 112.320312 91.871094 C 112.101562 91.421875 112.179688 91.027344 112.125 90.542969 C 112.050781 89.875 112.171875 89.617188 112.742188 89.210938 C 113.207031 88.878906 113.660156 88.265625 113.925781 87.765625 C 114 87.625 114.398438 87.28125 114.324219 87.109375 C 114.234375 86.890625 113.613281 86.832031 113.421875 86.757812 C 112.667969 86.460938 111.878906 86.257812 111.132812 85.933594 C 110.871094 85.914062 110.695312 85.8125 110.46875 85.707031 C 110.367188 85.707031 109.878906 85.558594 109.769531 85.503906 C 109.261719 85.25 108.714844 85.027344 108.191406 84.753906 C 107.386719 84.328125 106.421875 83.601562 105.648438 82.992188 C 105.441406 82.828125 105.203125 82.679688 104.988281 82.523438 C 104.808594 82.390625 104.351562 81.914062 104.15625 81.914062 C 104.039062 81.914062 103.6875 81.585938 103.613281 81.488281 C 103.476562 81.296875 103.179688 81.234375 103.035156 81.050781 C 102.902344 80.882812 102.738281 80.820312 102.5625 80.695312 C 102.441406 80.609375 102.484375 80.523438 102.390625 80.441406 C 102.285156 80.472656 102.183594 80.394531 102.128906 80.3125 C 102.011719 80.132812 101.769531 80.113281 101.707031 79.878906 C 101.542969 79.828125 101.09375 79.5 101.007812 79.347656 C 100.894531 79.144531 100.6875 79.15625 100.550781 78.929688 C 100.398438 78.863281 100.011719 78.550781 99.976562 78.398438 C 99.757812 78.308594 99.613281 78.074219 99.464844 77.898438 C 99.1875 77.621094 98.890625 77.347656 98.605469 77.074219 C 97.6875 76.1875 97.113281 74.941406 96.324219 73.917969 C 95.980469 73.476562 95.8125 72.796875 95.625 72.277344 C 95.375 71.589844 95.117188 70.910156 94.921875 70.238281 C 94.351562 68.28125 93.328125 66.46875 93.210938 64.386719 C 93.082031 63.664062 92.992188 62.425781 92.371094 61.925781 C 92.15625 61.753906 92.140625 61.609375 91.863281 61.542969 C 91.546875 61.460938 91.238281 61.542969 90.917969 61.496094 C 90.921875 61.5 90.828125 61.429688 90.722656 61.433594 C 90.550781 61.433594 90.382812 61.433594 90.210938 61.433594 C 90.21875 61.414062 90.222656 61.390625 90.230469 61.367188 C 90.113281 61.367188 89.746094 61.519531 89.699219 61.328125 C 89.34375 61.289062 89 61.1875 88.652344 61.105469 C 88.109375 60.972656 87.574219 61.003906 87.066406 61.261719 C 86.746094 61.421875 86.410156 61.53125 86.183594 61.761719 C 86.085938 61.863281 85.984375 61.839844 85.894531 61.9375 C 85.851562 61.976562 85.570312 62.148438 85.515625 62.167969 C 85.394531 62.222656 84.015625 62.886719 84.015625 62.910156 C 84.023438 63.089844 82.777344 63.441406 82.570312 63.4375 C 82.53125 63.171875 82.71875 63.078125 82.792969 62.851562 C 82.964844 62.316406 83.070312 61.667969 83.398438 61.210938 C 83.292969 60.984375 82.609375 61.355469 82.367188 61.460938 C 82.164062 61.550781 80.863281 62.222656 81.390625 61.398438 C 81.429688 61.296875 81.34375 61.472656 81.390625 61.398438 Z M 81.390625 61.398438 " fill-opacity="1" fill-rule="nonzero"/></g><g fill="#ffffff" fill-opacity="1"><g transform="translate(34.169531, 142.242568)"><g><path d="M 6.515625 -4.4375 L 14.671875 -4.4375 C 15.328125 -4.4375 15.804688 -4.359375 16.109375 -4.203125 C 16.410156 -4.054688 16.609375 -3.820312 16.703125 -3.5 C 16.804688 -3.1875 16.859375 -2.765625 16.859375 -2.234375 C 16.859375 -1.703125 16.804688 -1.273438 16.703125 -0.953125 C 16.609375 -0.640625 16.441406 -0.421875 16.203125 -0.296875 C 15.816406 -0.0976562 15.296875 0 14.640625 0 L 3.84375 0 C 2.4375 0 1.613281 -0.378906 1.375 -1.140625 C 1.257812 -1.460938 1.203125 -1.972656 1.203125 -2.671875 L 1.203125 -19.34375 C 1.203125 -19.8125 1.21875 -20.160156 1.25 -20.390625 C 1.28125 -20.617188 1.375 -20.882812 1.53125 -21.1875 C 1.8125 -21.71875 2.59375 -21.984375 3.875 -21.984375 C 5.269531 -21.984375 6.097656 -21.613281 6.359375 -20.875 C 6.460938 -20.539062 6.515625 -20.019531 6.515625 -19.3125 Z M 6.515625 -4.4375 "/></g></g></g><g fill="#ffffff" fill-opacity="1"><g transform="translate(51.779515, 142.242568)"><g><path d="M 11.515625 -22.265625 C 14.472656 -22.265625 17.039062 -21.191406 19.21875 -19.046875 C 21.40625 -16.910156 22.5 -14.253906 22.5 -11.078125 C 22.5 -7.910156 21.457031 -5.210938 19.375 -2.984375 C 17.300781 -0.753906 14.742188 0.359375 11.703125 0.359375 C 8.660156 0.359375 6.070312 -0.738281 3.9375 -2.9375 C 1.8125 -5.132812 0.75 -7.753906 0.75 -10.796875 C 0.75 -12.460938 1.046875 -14.019531 1.640625 -15.46875 C 2.242188 -16.914062 3.046875 -18.128906 4.046875 -19.109375 C 5.046875 -20.085938 6.195312 -20.859375 7.5 -21.421875 C 8.800781 -21.984375 10.140625 -22.265625 11.515625 -22.265625 Z M 6.0625 -10.953125 C 6.0625 -9.171875 6.632812 -7.722656 7.78125 -6.609375 C 8.9375 -5.503906 10.222656 -4.953125 11.640625 -4.953125 C 13.054688 -4.953125 14.332031 -5.488281 15.46875 -6.5625 C 16.613281 -7.644531 17.1875 -9.097656 17.1875 -10.921875 C 17.1875 -12.742188 16.609375 -14.203125 15.453125 -15.296875 C 14.304688 -16.398438 13.023438 -16.953125 11.609375 -16.953125 C 10.191406 -16.953125 8.910156 -16.394531 7.765625 -15.28125 C 6.628906 -14.175781 6.0625 -12.734375 6.0625 -10.953125 Z M 6.0625 -10.953125 "/></g></g></g><g fill="#ffffff" fill-opacity="1"><g transform="translate(75.029491, 142.242568)"><g><path d="M 21.265625 -21.65625 C 22.453125 -21.082031 23.046875 -20.441406 23.046875 -19.734375 C 23.046875 -19.421875 22.894531 -18.941406 22.59375 -18.296875 L 14.3125 -1.5 C 14.09375 -1.0625 13.753906 -0.707031 13.296875 -0.4375 C 12.847656 -0.164062 12.382812 -0.03125 11.90625 -0.03125 L 11.609375 -0.03125 C 11.109375 -0.03125 10.632812 -0.164062 10.1875 -0.4375 C 9.738281 -0.707031 9.40625 -1.0625 9.1875 -1.5 L 0.90625 -18.296875 C 0.601562 -18.941406 0.453125 -19.421875 0.453125 -19.734375 C 0.453125 -20.441406 1.039062 -21.082031 2.21875 -21.65625 C 2.875 -22 3.378906 -22.171875 3.734375 -22.171875 C 4.085938 -22.171875 4.351562 -22.128906 4.53125 -22.046875 C 4.707031 -21.972656 4.878906 -21.832031 5.046875 -21.625 C 5.222656 -21.382812 5.382812 -21.117188 5.53125 -20.828125 C 5.6875 -20.546875 6.070312 -19.71875 6.6875 -18.34375 C 7.3125 -16.976562 7.976562 -15.523438 8.6875 -13.984375 C 9.394531 -12.441406 10.0625 -10.984375 10.6875 -9.609375 C 11.320312 -8.242188 11.679688 -7.476562 11.765625 -7.3125 L 17.765625 -20.453125 C 17.921875 -20.835938 18.0625 -21.140625 18.1875 -21.359375 C 18.539062 -21.898438 18.976562 -22.171875 19.5 -22.171875 C 20.019531 -22.171875 20.609375 -22 21.265625 -21.65625 Z M 21.265625 -21.65625 "/></g></g></g><g fill="#ffffff" fill-opacity="1"><g transform="translate(98.519472, 142.242568)"><g><path d="M 6.515625 -5.3125 L 15.75 -5.3125 C 16.207031 -5.3125 16.550781 -5.296875 16.78125 -5.265625 C 17.007812 -5.234375 17.273438 -5.140625 17.578125 -4.984375 C 18.117188 -4.703125 18.390625 -3.921875 18.390625 -2.640625 C 18.390625 -1.242188 18.019531 -0.425781 17.28125 -0.1875 C 16.9375 -0.0625 16.414062 0 15.71875 0 L 3.84375 0 C 2.4375 0 1.613281 -0.378906 1.375 -1.140625 C 1.257812 -1.460938 1.203125 -1.972656 1.203125 -2.671875 L 1.203125 -19.34375 C 1.203125 -20.363281 1.390625 -21.054688 1.765625 -21.421875 C 2.148438 -21.796875 2.875 -21.984375 3.9375 -21.984375 L 15.75 -21.984375 C 16.207031 -21.984375 16.550781 -21.96875 16.78125 -21.9375 C 17.007812 -21.914062 17.273438 -21.820312 17.578125 -21.65625 C 18.117188 -21.375 18.390625 -20.59375 18.390625 -19.3125 C 18.390625 -17.914062 18.019531 -17.097656 17.28125 -16.859375 C 16.9375 -16.742188 16.414062 -16.6875 15.71875 -16.6875 L 6.515625 -16.6875 L 6.515625 -13.65625 L 12.453125 -13.65625 C 12.910156 -13.65625 13.253906 -13.640625 13.484375 -13.609375 C 13.710938 -13.578125 13.976562 -13.476562 14.28125 -13.3125 C 14.820312 -13.039062 15.09375 -12.265625 15.09375 -10.984375 C 15.09375 -9.578125 14.710938 -8.753906 13.953125 -8.515625 C 13.609375 -8.398438 13.085938 -8.34375 12.390625 -8.34375 L 6.515625 -8.34375 Z M 6.515625 -5.3125 "/></g></g></g><g fill="#ffffff" fill-opacity="1"><g transform="translate(117.659451, 142.242568)"><g/></g></g><g fill="#ffffff" fill-opacity="1"><g transform="translate(125.249447, 142.242568)"><g><path d="M 15.40625 -21.0625 C 15.59375 -21.414062 15.875 -21.648438 16.25 -21.765625 C 16.632812 -21.890625 17.113281 -21.953125 17.6875 -21.953125 C 18.257812 -21.953125 18.71875 -21.898438 19.0625 -21.796875 C 19.414062 -21.703125 19.675781 -21.582031 19.84375 -21.4375 C 20.007812 -21.300781 20.132812 -21.09375 20.21875 -20.8125 C 20.34375 -20.5 20.40625 -19.992188 20.40625 -19.296875 L 20.40625 -2.640625 C 20.40625 -2.160156 20.390625 -1.8125 20.359375 -1.59375 C 20.328125 -1.375 20.226562 -1.113281 20.0625 -0.8125 C 19.789062 -0.269531 19.015625 0 17.734375 0 C 16.953125 0 16.410156 -0.0546875 16.109375 -0.171875 C 15.804688 -0.296875 15.554688 -0.488281 15.359375 -0.75 C 10.859375 -6.75 7.898438 -10.671875 6.484375 -12.515625 L 6.484375 -2.640625 C 6.484375 -2.160156 6.46875 -1.8125 6.4375 -1.59375 C 6.40625 -1.375 6.3125 -1.113281 6.15625 -0.8125 C 5.875 -0.269531 5.09375 0 3.8125 0 C 2.570312 0 1.8125 -0.269531 1.53125 -0.8125 C 1.375 -1.113281 1.28125 -1.382812 1.25 -1.625 C 1.21875 -1.863281 1.203125 -2.210938 1.203125 -2.671875 L 1.203125 -19.40625 C 1.203125 -20.164062 1.296875 -20.71875 1.484375 -21.0625 C 1.671875 -21.414062 1.953125 -21.648438 2.328125 -21.765625 C 2.710938 -21.890625 3.203125 -21.953125 3.796875 -21.953125 C 4.398438 -21.953125 4.878906 -21.894531 5.234375 -21.78125 C 5.585938 -21.675781 5.832031 -21.554688 5.96875 -21.421875 C 6.050781 -21.359375 6.28125 -21.097656 6.65625 -20.640625 C 10.875 -14.898438 13.695312 -11.109375 15.125 -9.265625 L 15.125 -19.40625 C 15.125 -20.164062 15.21875 -20.71875 15.40625 -21.0625 Z M 15.40625 -21.0625 "/></g></g></g><g fill="#ffffff" fill-opacity="1"><g transform="translate(146.849426, 142.242568)"><g><path d="M 6.515625 -5.3125 L 15.75 -5.3125 C 16.207031 -5.3125 16.550781 -5.296875 16.78125 -5.265625 C 17.007812 -5.234375 17.273438 -5.140625 17.578125 -4.984375 C 18.117188 -4.703125 18.390625 -3.921875 18.390625 -2.640625 C 18.390625 -1.242188 18.019531 -0.425781 17.28125 -0.1875 C 16.9375 -0.0625 16.414062 0 15.71875 0 L 3.84375 0 C 2.4375 0 1.613281 -0.378906 1.375 -1.140625 C 1.257812 -1.460938 1.203125 -1.972656 1.203125 -2.671875 L 1.203125 -19.34375 C 1.203125 -20.363281 1.390625 -21.054688 1.765625 -21.421875 C 2.148438 -21.796875 2.875 -21.984375 3.9375 -21.984375 L 15.75 -21.984375 C 16.207031 -21.984375 16.550781 -21.96875 16.78125 -21.9375 C 17.007812 -21.914062 17.273438 -21.820312 17.578125 -21.65625 C 18.117188 -21.375 18.390625 -20.59375 18.390625 -19.3125 C 18.390625 -17.914062 18.019531 -17.097656 17.28125 -16.859375 C 16.9375 -16.742188 16.414062 -16.6875 15.71875 -16.6875 L 6.515625 -16.6875 L 6.515625 -13.65625 L 12.453125 -13.65625 C 12.910156 -13.65625 13.253906 -13.640625 13.484375 -13.609375 C 13.710938 -13.578125 13.976562 -13.476562 14.28125 -13.3125 C 14.820312 -13.039062 15.09375 -12.265625 15.09375 -10.984375 C 15.09375 -9.578125 14.710938 -8.753906 13.953125 -8.515625 C 13.609375 -8.398438 13.085938 -8.34375 12.390625 -8.34375 L 6.515625 -8.34375 Z M 6.515625 -5.3125 "/></g></g></g><g fill="#ffffff" fill-opacity="1"><g transform="translate(165.989405, 142.242568)"><g><path d="M 1.53125 -3.09375 C 1.007812 -3.726562 0.75 -4.300781 0.75 -4.8125 C 0.75 -5.320312 1.179688 -6 2.046875 -6.84375 C 2.546875 -7.320312 3.070312 -7.5625 3.625 -7.5625 C 4.1875 -7.5625 4.96875 -7.0625 5.96875 -6.0625 C 6.25 -5.71875 6.648438 -5.390625 7.171875 -5.078125 C 7.691406 -4.773438 8.171875 -4.625 8.609375 -4.625 C 10.472656 -4.625 11.40625 -5.382812 11.40625 -6.90625 C 11.40625 -7.363281 11.148438 -7.742188 10.640625 -8.046875 C 10.128906 -8.359375 9.492188 -8.582031 8.734375 -8.71875 C 7.972656 -8.863281 7.148438 -9.09375 6.265625 -9.40625 C 5.390625 -9.71875 4.570312 -10.082031 3.8125 -10.5 C 3.050781 -10.914062 2.414062 -11.578125 1.90625 -12.484375 C 1.394531 -13.398438 1.140625 -14.5 1.140625 -15.78125 C 1.140625 -17.539062 1.789062 -19.070312 3.09375 -20.375 C 4.40625 -21.6875 6.191406 -22.34375 8.453125 -22.34375 C 9.660156 -22.34375 10.757812 -22.1875 11.75 -21.875 C 12.738281 -21.570312 13.421875 -21.257812 13.796875 -20.9375 L 14.546875 -20.375 C 15.171875 -19.789062 15.484375 -19.296875 15.484375 -18.890625 C 15.484375 -18.492188 15.242188 -17.945312 14.765625 -17.25 C 14.078125 -16.25 13.375 -15.75 12.65625 -15.75 C 12.238281 -15.75 11.71875 -15.945312 11.09375 -16.34375 C 11.039062 -16.382812 10.925781 -16.484375 10.75 -16.640625 C 10.582031 -16.804688 10.429688 -16.941406 10.296875 -17.046875 C 9.867188 -17.304688 9.328125 -17.4375 8.671875 -17.4375 C 8.023438 -17.4375 7.488281 -17.28125 7.0625 -16.96875 C 6.632812 -16.65625 6.421875 -16.222656 6.421875 -15.671875 C 6.421875 -15.117188 6.675781 -14.671875 7.1875 -14.328125 C 7.695312 -13.992188 8.332031 -13.765625 9.09375 -13.640625 C 9.851562 -13.523438 10.679688 -13.34375 11.578125 -13.09375 C 12.484375 -12.84375 13.3125 -12.535156 14.0625 -12.171875 C 14.820312 -11.816406 15.457031 -11.191406 15.96875 -10.296875 C 16.476562 -9.410156 16.734375 -8.316406 16.734375 -7.015625 C 16.734375 -5.710938 16.472656 -4.566406 15.953125 -3.578125 C 15.441406 -2.585938 14.765625 -1.828125 13.921875 -1.296875 C 12.296875 -0.234375 10.566406 0.296875 8.734375 0.296875 C 7.785156 0.296875 6.890625 0.179688 6.046875 -0.046875 C 5.210938 -0.273438 4.535156 -0.5625 4.015625 -0.90625 C 2.960938 -1.539062 2.222656 -2.160156 1.796875 -2.765625 Z M 1.53125 -3.09375 "/></g></g></g><g fill="#ffffff" fill-opacity="1"><g transform="translate(183.479387, 142.242568)"><g><path d="M 2.640625 -22.015625 L 19.3125 -22.015625 C 19.957031 -22.015625 20.429688 -21.9375 20.734375 -21.78125 C 21.035156 -21.632812 21.234375 -21.398438 21.328125 -21.078125 C 21.429688 -20.765625 21.484375 -20.347656 21.484375 -19.828125 C 21.484375 -19.304688 21.429688 -18.890625 21.328125 -18.578125 C 21.234375 -18.273438 21.0625 -18.0625 20.8125 -17.9375 C 20.457031 -17.757812 19.953125 -17.671875 19.296875 -17.671875 L 13.5625 -17.671875 L 13.5625 -2.578125 C 13.5625 -2.117188 13.546875 -1.78125 13.515625 -1.5625 C 13.484375 -1.34375 13.390625 -1.085938 13.234375 -0.796875 C 13.085938 -0.503906 12.820312 -0.296875 12.4375 -0.171875 C 12.0625 -0.0546875 11.5625 0 10.9375 0 C 10.320312 0 9.828125 -0.0546875 9.453125 -0.171875 C 9.085938 -0.296875 8.828125 -0.503906 8.671875 -0.796875 C 8.523438 -1.085938 8.4375 -1.347656 8.40625 -1.578125 C 8.382812 -1.804688 8.375 -2.148438 8.375 -2.609375 L 8.375 -17.671875 L 2.609375 -17.671875 C 1.972656 -17.671875 1.503906 -17.742188 1.203125 -17.890625 C 0.898438 -18.046875 0.695312 -18.28125 0.59375 -18.59375 C 0.5 -18.914062 0.453125 -19.335938 0.453125 -19.859375 C 0.453125 -20.378906 0.5 -20.789062 0.59375 -21.09375 C 0.695312 -21.40625 0.867188 -21.625 1.109375 -21.75 C 1.472656 -21.925781 1.984375 -22.015625 2.640625 -22.015625 Z M 2.640625 -22.015625 "/></g></g></g><g fill="#ffffff" fill-opacity="1"><g transform="translate(77.341404, 162.677671)"><g><path d="M 0.875 -7.34375 L 6.4375 -7.34375 C 6.65625 -7.34375 6.8125 -7.316406 6.90625 -7.265625 C 7.007812 -7.210938 7.078125 -7.132812 7.109375 -7.03125 C 7.140625 -6.925781 7.15625 -6.785156 7.15625 -6.609375 C 7.15625 -6.429688 7.140625 -6.289062 7.109375 -6.1875 C 7.078125 -6.09375 7.019531 -6.023438 6.9375 -5.984375 C 6.820312 -5.921875 6.65625 -5.890625 6.4375 -5.890625 L 4.515625 -5.890625 L 4.515625 -0.859375 C 4.515625 -0.703125 4.507812 -0.585938 4.5 -0.515625 C 4.488281 -0.441406 4.457031 -0.359375 4.40625 -0.265625 C 4.363281 -0.171875 4.273438 -0.101562 4.140625 -0.0625 C 4.015625 -0.0195312 3.847656 0 3.640625 0 C 3.441406 0 3.28125 -0.0195312 3.15625 -0.0625 C 3.03125 -0.101562 2.941406 -0.171875 2.890625 -0.265625 C 2.835938 -0.359375 2.804688 -0.441406 2.796875 -0.515625 C 2.796875 -0.597656 2.796875 -0.71875 2.796875 -0.875 L 2.796875 -5.890625 L 0.875 -5.890625 C 0.65625 -5.890625 0.492188 -5.914062 0.390625 -5.96875 C 0.296875 -6.019531 0.234375 -6.097656 0.203125 -6.203125 C 0.171875 -6.304688 0.15625 -6.441406 0.15625 -6.609375 C 0.15625 -6.785156 0.171875 -6.925781 0.203125 -7.03125 C 0.234375 -7.132812 0.289062 -7.207031 0.375 -7.25 C 0.488281 -7.3125 0.65625 -7.34375 0.875 -7.34375 Z M 0.875 -7.34375 "/></g></g></g><g fill="#ffffff" fill-opacity="1"><g transform="translate(84.648525, 162.677671)"><g><path d="M 4.921875 -7.046875 C 4.984375 -7.148438 5.078125 -7.222656 5.203125 -7.265625 C 5.328125 -7.304688 5.484375 -7.328125 5.671875 -7.328125 C 5.867188 -7.328125 6.023438 -7.3125 6.140625 -7.28125 C 6.253906 -7.25 6.335938 -7.207031 6.390625 -7.15625 C 6.453125 -7.113281 6.503906 -7.046875 6.546875 -6.953125 C 6.578125 -6.847656 6.59375 -6.675781 6.59375 -6.4375 L 6.59375 -0.890625 C 6.59375 -0.734375 6.585938 -0.617188 6.578125 -0.546875 C 6.566406 -0.472656 6.535156 -0.382812 6.484375 -0.28125 C 6.390625 -0.101562 6.128906 -0.015625 5.703125 -0.015625 C 5.234375 -0.015625 4.957031 -0.132812 4.875 -0.375 C 4.832031 -0.488281 4.8125 -0.664062 4.8125 -0.90625 L 4.8125 -2.9375 L 2.171875 -2.9375 L 2.171875 -0.890625 C 2.171875 -0.734375 2.164062 -0.617188 2.15625 -0.546875 C 2.144531 -0.472656 2.113281 -0.382812 2.0625 -0.28125 C 1.96875 -0.101562 1.707031 -0.015625 1.28125 -0.015625 C 0.8125 -0.015625 0.535156 -0.132812 0.453125 -0.375 C 0.421875 -0.488281 0.40625 -0.664062 0.40625 -0.90625 L 0.40625 -6.453125 C 0.40625 -6.609375 0.410156 -6.722656 0.421875 -6.796875 C 0.429688 -6.867188 0.460938 -6.957031 0.515625 -7.0625 C 0.609375 -7.238281 0.867188 -7.328125 1.296875 -7.328125 C 1.753906 -7.328125 2.03125 -7.203125 2.125 -6.953125 C 2.15625 -6.847656 2.171875 -6.675781 2.171875 -6.4375 L 2.171875 -4.40625 L 4.8125 -4.40625 L 4.8125 -6.453125 C 4.8125 -6.609375 4.816406 -6.722656 4.828125 -6.796875 C 4.835938 -6.867188 4.867188 -6.953125 4.921875 -7.046875 Z M 4.921875 -7.046875 "/></g></g></g><g fill="#ffffff" fill-opacity="1"><g transform="translate(91.635772, 162.677671)"><g><path d="M 2.171875 -1.765625 L 5.25 -1.765625 C 5.40625 -1.765625 5.519531 -1.757812 5.59375 -1.75 C 5.664062 -1.738281 5.753906 -1.707031 5.859375 -1.65625 C 6.035156 -1.5625 6.125 -1.300781 6.125 -0.875 C 6.125 -0.414062 6.003906 -0.144531 5.765625 -0.0625 C 5.648438 -0.0195312 5.472656 0 5.234375 0 L 1.28125 0 C 0.8125 0 0.535156 -0.125 0.453125 -0.375 C 0.421875 -0.488281 0.40625 -0.660156 0.40625 -0.890625 L 0.40625 -6.453125 C 0.40625 -6.785156 0.46875 -7.015625 0.59375 -7.140625 C 0.71875 -7.265625 0.957031 -7.328125 1.3125 -7.328125 L 5.25 -7.328125 C 5.40625 -7.328125 5.519531 -7.320312 5.59375 -7.3125 C 5.664062 -7.300781 5.753906 -7.269531 5.859375 -7.21875 C 6.035156 -7.125 6.125 -6.863281 6.125 -6.4375 C 6.125 -5.96875 6.003906 -5.695312 5.765625 -5.625 C 5.648438 -5.582031 5.472656 -5.5625 5.234375 -5.5625 L 2.171875 -5.5625 L 2.171875 -4.546875 L 4.15625 -4.546875 C 4.300781 -4.546875 4.410156 -4.539062 4.484375 -4.53125 C 4.566406 -4.519531 4.660156 -4.488281 4.765625 -4.4375 C 4.941406 -4.34375 5.03125 -4.082031 5.03125 -3.65625 C 5.03125 -3.1875 4.90625 -2.914062 4.65625 -2.84375 C 4.539062 -2.800781 4.363281 -2.78125 4.125 -2.78125 L 2.171875 -2.78125 Z M 2.171875 -1.765625 "/></g></g></g><g fill="#ffffff" fill-opacity="1"><g transform="translate(98.013255, 162.677671)"><g/></g></g><g fill="#ffffff" fill-opacity="1"><g transform="translate(100.542262, 162.677671)"><g><path d="M 1.296875 -7.34375 L 3.140625 -7.328125 C 4.109375 -7.328125 4.957031 -6.976562 5.6875 -6.28125 C 6.425781 -5.582031 6.796875 -4.722656 6.796875 -3.703125 C 6.796875 -2.691406 6.4375 -1.820312 5.71875 -1.09375 C 5 -0.375 4.128906 -0.015625 3.109375 -0.015625 L 1.28125 -0.015625 C 0.875 -0.015625 0.617188 -0.0976562 0.515625 -0.265625 C 0.441406 -0.398438 0.40625 -0.613281 0.40625 -0.90625 L 0.40625 -6.453125 C 0.40625 -6.617188 0.410156 -6.738281 0.421875 -6.8125 C 0.429688 -6.882812 0.460938 -6.96875 0.515625 -7.0625 C 0.609375 -7.25 0.867188 -7.34375 1.296875 -7.34375 Z M 3.140625 -1.78125 C 3.617188 -1.78125 4.050781 -1.957031 4.4375 -2.3125 C 4.820312 -2.664062 5.015625 -3.113281 5.015625 -3.65625 C 5.015625 -4.195312 4.828125 -4.648438 4.453125 -5.015625 C 4.078125 -5.378906 3.632812 -5.5625 3.125 -5.5625 L 2.171875 -5.5625 L 2.171875 -1.78125 Z M 3.140625 -1.78125 "/></g></g></g><g fill="#ffffff" fill-opacity="1"><g transform="translate(107.579485, 162.677671)"><g><path d="M 4.625 -6.8125 L 7.328125 -1.234375 C 7.441406 -1.003906 7.5 -0.832031 7.5 -0.71875 C 7.5 -0.476562 7.304688 -0.257812 6.921875 -0.0625 C 6.691406 0.0390625 6.507812 0.09375 6.375 0.09375 C 6.25 0.09375 6.144531 0.0625 6.0625 0 C 5.976562 -0.0507812 5.914062 -0.109375 5.875 -0.171875 C 5.84375 -0.242188 5.796875 -0.347656 5.734375 -0.484375 L 5.203125 -1.5625 L 2.4375 -1.5625 L 1.921875 -0.484375 C 1.847656 -0.347656 1.789062 -0.25 1.75 -0.1875 C 1.71875 -0.125 1.660156 -0.0625 1.578125 0 C 1.492188 0.0625 1.382812 0.09375 1.25 0.09375 C 1.125 0.09375 0.953125 0.0351562 0.734375 -0.078125 C 0.347656 -0.265625 0.15625 -0.476562 0.15625 -0.71875 C 0.15625 -0.832031 0.207031 -1.003906 0.3125 -1.234375 L 3.015625 -6.8125 C 3.085938 -6.96875 3.195312 -7.09375 3.34375 -7.1875 C 3.5 -7.28125 3.660156 -7.328125 3.828125 -7.328125 C 4.191406 -7.328125 4.457031 -7.15625 4.625 -6.8125 Z M 3.8125 -4.40625 L 3.15625 -3.046875 L 4.484375 -3.046875 Z M 3.8125 -4.40625 "/></g></g></g><g fill="#ffffff" fill-opacity="1"><g transform="translate(115.226472, 162.677671)"><g><path d="M 0.875 -7.34375 L 6.4375 -7.34375 C 6.65625 -7.34375 6.8125 -7.316406 6.90625 -7.265625 C 7.007812 -7.210938 7.078125 -7.132812 7.109375 -7.03125 C 7.140625 -6.925781 7.15625 -6.785156 7.15625 -6.609375 C 7.15625 -6.429688 7.140625 -6.289062 7.109375 -6.1875 C 7.078125 -6.09375 7.019531 -6.023438 6.9375 -5.984375 C 6.820312 -5.921875 6.65625 -5.890625 6.4375 -5.890625 L 4.515625 -5.890625 L 4.515625 -0.859375 C 4.515625 -0.703125 4.507812 -0.585938 4.5 -0.515625 C 4.488281 -0.441406 4.457031 -0.359375 4.40625 -0.265625 C 4.363281 -0.171875 4.273438 -0.101562 4.140625 -0.0625 C 4.015625 -0.0195312 3.847656 0 3.640625 0 C 3.441406 0 3.28125 -0.0195312 3.15625 -0.0625 C 3.03125 -0.101562 2.941406 -0.171875 2.890625 -0.265625 C 2.835938 -0.359375 2.804688 -0.441406 2.796875 -0.515625 C 2.796875 -0.597656 2.796875 -0.71875 2.796875 -0.875 L 2.796875 -5.890625 L 0.875 -5.890625 C 0.65625 -5.890625 0.492188 -5.914062 0.390625 -5.96875 C 0.296875 -6.019531 0.234375 -6.097656 0.203125 -6.203125 C 0.171875 -6.304688 0.15625 -6.441406 0.15625 -6.609375 C 0.15625 -6.785156 0.171875 -6.925781 0.203125 -7.03125 C 0.234375 -7.132812 0.289062 -7.207031 0.375 -7.25 C 0.488281 -7.3125 0.65625 -7.34375 0.875 -7.34375 Z M 0.875 -7.34375 "/></g></g></g><g fill="#ffffff" fill-opacity="1"><g transform="translate(122.533593, 162.677671)"><g><path d="M 0.40625 -6.453125 C 0.40625 -6.609375 0.410156 -6.722656 0.421875 -6.796875 C 0.429688 -6.867188 0.460938 -6.957031 0.515625 -7.0625 C 0.609375 -7.238281 0.867188 -7.328125 1.296875 -7.328125 C 1.753906 -7.328125 2.03125 -7.203125 2.125 -6.953125 C 2.15625 -6.847656 2.171875 -6.675781 2.171875 -6.4375 L 2.171875 -0.875 C 2.171875 -0.71875 2.164062 -0.601562 2.15625 -0.53125 C 2.144531 -0.457031 2.113281 -0.367188 2.0625 -0.265625 C 1.96875 -0.0859375 1.707031 0 1.28125 0 C 0.8125 0 0.535156 -0.125 0.453125 -0.375 C 0.421875 -0.488281 0.40625 -0.660156 0.40625 -0.890625 Z M 0.40625 -6.453125 "/></g></g></g><g fill="#ffffff" fill-opacity="1"><g transform="translate(125.102574, 162.677671)"><g><path d="M 5.140625 -7.015625 C 5.203125 -7.140625 5.296875 -7.21875 5.421875 -7.25 C 5.546875 -7.289062 5.703125 -7.3125 5.890625 -7.3125 C 6.085938 -7.3125 6.242188 -7.296875 6.359375 -7.265625 C 6.472656 -7.234375 6.554688 -7.191406 6.609375 -7.140625 C 6.671875 -7.097656 6.710938 -7.03125 6.734375 -6.9375 C 6.773438 -6.832031 6.796875 -6.664062 6.796875 -6.4375 L 6.796875 -0.875 C 6.796875 -0.71875 6.789062 -0.601562 6.78125 -0.53125 C 6.769531 -0.457031 6.738281 -0.367188 6.6875 -0.265625 C 6.59375 -0.0859375 6.332031 0 5.90625 0 C 5.644531 0 5.460938 -0.0195312 5.359375 -0.0625 C 5.265625 -0.101562 5.1875 -0.164062 5.125 -0.25 C 3.625 -2.25 2.632812 -3.554688 2.15625 -4.171875 L 2.15625 -0.875 C 2.15625 -0.71875 2.148438 -0.601562 2.140625 -0.53125 C 2.128906 -0.457031 2.097656 -0.367188 2.046875 -0.265625 C 1.953125 -0.0859375 1.691406 0 1.265625 0 C 0.859375 0 0.609375 -0.0859375 0.515625 -0.265625 C 0.460938 -0.367188 0.429688 -0.457031 0.421875 -0.53125 C 0.410156 -0.613281 0.40625 -0.734375 0.40625 -0.890625 L 0.40625 -6.46875 C 0.40625 -6.71875 0.4375 -6.898438 0.5 -7.015625 C 0.5625 -7.140625 0.65625 -7.21875 0.78125 -7.25 C 0.90625 -7.289062 1.066406 -7.3125 1.265625 -7.3125 C 1.460938 -7.3125 1.617188 -7.289062 1.734375 -7.25 C 1.859375 -7.21875 1.941406 -7.179688 1.984375 -7.140625 C 2.015625 -7.117188 2.09375 -7.03125 2.21875 -6.875 C 3.625 -4.96875 4.566406 -3.707031 5.046875 -3.09375 L 5.046875 -6.46875 C 5.046875 -6.71875 5.078125 -6.898438 5.140625 -7.015625 Z M 5.140625 -7.015625 "/></g></g></g><g fill="#ffffff" fill-opacity="1"><g transform="translate(132.29974, 162.677671)"><g><path d="M 4.21875 -4.421875 L 5.984375 -4.421875 C 6.335938 -4.410156 6.554688 -4.316406 6.640625 -4.140625 C 6.703125 -4.015625 6.734375 -3.828125 6.734375 -3.578125 L 6.734375 -1.375 C 6.734375 -1.164062 6.640625 -0.960938 6.453125 -0.765625 C 5.898438 -0.191406 5.0625 0.09375 3.9375 0.09375 C 2.945312 0.09375 2.082031 -0.28125 1.34375 -1.03125 C 0.613281 -1.78125 0.25 -2.679688 0.25 -3.734375 C 0.25 -4.796875 0.617188 -5.679688 1.359375 -6.390625 C 2.109375 -7.097656 2.992188 -7.453125 4.015625 -7.453125 C 4.796875 -7.453125 5.535156 -7.195312 6.234375 -6.6875 C 6.421875 -6.550781 6.515625 -6.398438 6.515625 -6.234375 C 6.515625 -6.066406 6.4375 -5.878906 6.28125 -5.671875 C 6.019531 -5.316406 5.78125 -5.140625 5.5625 -5.140625 C 5.4375 -5.140625 5.234375 -5.226562 4.953125 -5.40625 C 4.679688 -5.59375 4.347656 -5.6875 3.953125 -5.6875 C 3.453125 -5.6875 3.003906 -5.507812 2.609375 -5.15625 C 2.210938 -4.800781 2.015625 -4.332031 2.015625 -3.75 C 2.015625 -3.175781 2.210938 -2.6875 2.609375 -2.28125 C 3.015625 -1.882812 3.472656 -1.6875 3.984375 -1.6875 C 4.347656 -1.6875 4.675781 -1.742188 4.96875 -1.859375 L 4.96875 -2.953125 L 4.1875 -2.953125 C 3.976562 -2.953125 3.828125 -2.976562 3.734375 -3.03125 C 3.648438 -3.082031 3.59375 -3.160156 3.5625 -3.265625 C 3.539062 -3.367188 3.53125 -3.507812 3.53125 -3.6875 C 3.53125 -3.863281 3.546875 -4.003906 3.578125 -4.109375 C 3.609375 -4.210938 3.660156 -4.285156 3.734375 -4.328125 C 3.859375 -4.390625 4.019531 -4.421875 4.21875 -4.421875 Z M 4.21875 -4.421875 "/></g></g></g><g fill="#ffffff" fill-opacity="1"><g transform="translate(139.436928, 162.677671)"><g/></g></g><g fill="#ffffff" fill-opacity="1"><g transform="translate(141.965935, 162.677671)"><g><path d="M 4.625 -6.8125 L 7.328125 -1.234375 C 7.441406 -1.003906 7.5 -0.832031 7.5 -0.71875 C 7.5 -0.476562 7.304688 -0.257812 6.921875 -0.0625 C 6.691406 0.0390625 6.507812 0.09375 6.375 0.09375 C 6.25 0.09375 6.144531 0.0625 6.0625 0 C 5.976562 -0.0507812 5.914062 -0.109375 5.875 -0.171875 C 5.84375 -0.242188 5.796875 -0.347656 5.734375 -0.484375 L 5.203125 -1.5625 L 2.4375 -1.5625 L 1.921875 -0.484375 C 1.847656 -0.347656 1.789062 -0.25 1.75 -0.1875 C 1.71875 -0.125 1.660156 -0.0625 1.578125 0 C 1.492188 0.0625 1.382812 0.09375 1.25 0.09375 C 1.125 0.09375 0.953125 0.0351562 0.734375 -0.078125 C 0.347656 -0.265625 0.15625 -0.476562 0.15625 -0.71875 C 0.15625 -0.832031 0.207031 -1.003906 0.3125 -1.234375 L 3.015625 -6.8125 C 3.085938 -6.96875 3.195312 -7.09375 3.34375 -7.1875 C 3.5 -7.28125 3.660156 -7.328125 3.828125 -7.328125 C 4.191406 -7.328125 4.457031 -7.15625 4.625 -6.8125 Z M 3.8125 -4.40625 L 3.15625 -3.046875 L 4.484375 -3.046875 Z M 3.8125 -4.40625 "/></g></g></g><g fill="#ffffff" fill-opacity="1"><g transform="translate(149.612922, 162.677671)"><g><path d="M 5.796875 -5.84375 C 5.972656 -5.488281 6.0625 -5.09375 6.0625 -4.65625 C 6.0625 -4.226562 5.972656 -3.835938 5.796875 -3.484375 C 5.628906 -3.140625 5.410156 -2.863281 5.140625 -2.65625 C 4.585938 -2.226562 4.015625 -2.015625 3.421875 -2.015625 L 2.171875 -2.015625 L 2.171875 -0.890625 C 2.171875 -0.734375 2.164062 -0.617188 2.15625 -0.546875 C 2.144531 -0.472656 2.113281 -0.382812 2.0625 -0.28125 C 1.96875 -0.101562 1.707031 -0.015625 1.28125 -0.015625 C 0.8125 -0.015625 0.535156 -0.132812 0.453125 -0.375 C 0.421875 -0.488281 0.40625 -0.664062 0.40625 -0.90625 L 0.40625 -6.453125 C 0.40625 -6.609375 0.410156 -6.722656 0.421875 -6.796875 C 0.429688 -6.867188 0.460938 -6.957031 0.515625 -7.0625 C 0.609375 -7.238281 0.867188 -7.328125 1.296875 -7.328125 L 3.4375 -7.328125 C 4.019531 -7.328125 4.585938 -7.113281 5.140625 -6.6875 C 5.410156 -6.476562 5.628906 -6.195312 5.796875 -5.84375 Z M 3.4375 -3.796875 C 3.632812 -3.796875 3.828125 -3.867188 4.015625 -4.015625 C 4.210938 -4.160156 4.3125 -4.378906 4.3125 -4.671875 C 4.3125 -4.960938 4.210938 -5.179688 4.015625 -5.328125 C 3.828125 -5.484375 3.628906 -5.5625 3.421875 -5.5625 L 2.171875 -5.5625 L 2.171875 -3.796875 Z M 3.4375 -3.796875 "/></g></g></g><g fill="#ffffff" fill-opacity="1"><g transform="translate(155.930427, 162.677671)"><g><path d="M 5.796875 -5.84375 C 5.972656 -5.488281 6.0625 -5.09375 6.0625 -4.65625 C 6.0625 -4.226562 5.972656 -3.835938 5.796875 -3.484375 C 5.628906 -3.140625 5.410156 -2.863281 5.140625 -2.65625 C 4.585938 -2.226562 4.015625 -2.015625 3.421875 -2.015625 L 2.171875 -2.015625 L 2.171875 -0.890625 C 2.171875 -0.734375 2.164062 -0.617188 2.15625 -0.546875 C 2.144531 -0.472656 2.113281 -0.382812 2.0625 -0.28125 C 1.96875 -0.101562 1.707031 -0.015625 1.28125 -0.015625 C 0.8125 -0.015625 0.535156 -0.132812 0.453125 -0.375 C 0.421875 -0.488281 0.40625 -0.664062 0.40625 -0.90625 L 0.40625 -6.453125 C 0.40625 -6.609375 0.410156 -6.722656 0.421875 -6.796875 C 0.429688 -6.867188 0.460938 -6.957031 0.515625 -7.0625 C 0.609375 -7.238281 0.867188 -7.328125 1.296875 -7.328125 L 3.4375 -7.328125 C 4.019531 -7.328125 4.585938 -7.113281 5.140625 -6.6875 C 5.410156 -6.476562 5.628906 -6.195312 5.796875 -5.84375 Z M 3.4375 -3.796875 C 3.632812 -3.796875 3.828125 -3.867188 4.015625 -4.015625 C 4.210938 -4.160156 4.3125 -4.378906 4.3125 -4.671875 C 4.3125 -4.960938 4.210938 -5.179688 4.015625 -5.328125 C 3.828125 -5.484375 3.628906 -5.5625 3.421875 -5.5625 L 2.171875 -5.5625 L 2.171875 -3.796875 Z M 3.4375 -3.796875 "/></g></g></g></svg>