<?xml version="1.0" standalone="no"?>
<!DOCTYPE svg PUBLIC "-//W3C//DTD SVG 20010904//EN"
 "http://www.w3.org/TR/2001/REC-SVG-20010904/DTD/svg10.dtd">
<svg version="1.0" xmlns="http://www.w3.org/2000/svg"
 width="612.000000pt" height="612.000000pt" viewBox="0 0 612.000000 612.000000"
 preserveAspectRatio="xMidYMid meet">

<g transform="translate(0.000000,612.000000) scale(0.100000,-0.100000)"
fill="#000000" stroke="none">
<path d="M3540 4923 c-22 -9 -39 -35 -40 -59 0 -50 76 -73 104 -32 22 31 20
45 -9 73 -25 26 -30 27 -55 18z"/>
<path d="M4665 4761 c-11 -5 -29 -19 -40 -31 -27 -30 -28 -129 -1 -182 26 -53
174 -218 196 -218 25 0 185 172 215 230 29 57 33 124 9 158 -36 52 -108 66
-173 32 -37 -18 -41 -18 -71 -3 -39 19 -107 26 -135 14z m317 -58 c25 -23 23
-79 -7 -131 -28 -49 -122 -159 -144 -167 -9 -4 -33 12 -63 42 -101 99 -144
207 -99 247 16 15 30 18 68 13 26 -3 52 -12 58 -21 16 -21 41 -20 73 3 51 35
86 39 114 14z"/>
<path d="M3314 4609 c-36 -10 -60 -34 -94 -96 -20 -37 -44 -58 -115 -102 -97
-61 -174 -118 -299 -221 -71 -59 -76 -65 -55 -70 13 -3 19 -8 14 -12 -6 -3
-59 -31 -120 -63 -60 -32 -125 -66 -142 -77 -35 -21 -42 -48 -19 -67 12 -10
32 -1 101 43 97 63 127 72 276 82 112 7 123 4 175 -40 16 -14 40 -34 54 -45
l25 -20 -129 -1 -129 0 6 -55 c3 -30 8 -58 10 -62 3 -5 115 -3 249 4 620 30
779 38 1473 73 l740 38 -675 1 -675 2 46 24 c49 26 93 71 153 159 40 61 49 66
184 116 78 30 82 33 82 61 0 32 -16 69 -34 81 -25 17 -64 5 -164 -49 l-106
-56 -113 18 c-96 16 -120 17 -168 6 -50 -11 -57 -11 -82 7 -64 46 -140 43
-174 -6 -8 -10 -25 -22 -38 -27 l-23 -7 36 -37 c30 -31 36 -44 36 -79 0 -79
52 -160 125 -193 40 -19 39 -19 -264 -19 l-303 0 -50 36 c-58 43 -55 50 31 84
143 56 249 176 262 296 9 90 37 151 74 164 l30 11 -29 22 c-16 12 -41 32 -55
45 -44 41 -71 47 -127 31z"/>
<path d="M3761 4607 c-6 -8 -23 -12 -40 -9 -33 5 -62 -26 -54 -58 5 -18 75
-81 90 -79 15 1 73 90 73 112 0 42 -44 63 -69 34z"/>
<path d="M5310 4443 c-94 -48 -83 -169 18 -204 45 -15 101 13 126 64 16 34 17
42 5 74 -26 66 -91 95 -149 66z m90 -62 c14 -26 13 -64 -2 -79 -15 -15 -53
-16 -79 -2 -22 12 -27 68 -7 88 20 20 76 15 88 -7z"/>
<path d="M1316 4244 c-21 -20 -30 -57 -21 -85 8 -24 82 -109 96 -109 10 0 39
94 39 128 0 29 -51 82 -79 82 -11 0 -27 -7 -35 -16z"/>
<path d="M1535 4201 c-11 -5 -27 -17 -37 -27 -21 -24 -51 -125 -40 -136 15
-15 124 25 145 54 26 35 25 77 -3 100 -24 20 -35 21 -65 9z"/>
<path d="M4912 4128 c-24 -31 -23 -57 2 -83 29 -29 43 -31 74 -9 27 19 29 64
4 87 -22 20 -65 22 -80 5z"/>
<path d="M1505 3989 c-77 -38 -143 -69 -147 -69 -4 0 -21 23 -37 51 -16 28
-31 47 -34 42 -2 -4 -10 -42 -17 -83 -17 -108 -14 -103 -101 -173 l-81 -64
-101 -6 c-104 -7 -231 -33 -304 -62 -48 -19 -53 -37 -53 -178 l0 -87 38 18
c20 11 73 31 117 45 324 106 608 85 1119 -84 214 -70 226 -79 267 -206 12 -40
27 -73 33 -73 5 0 18 7 28 16 17 16 22 13 83 -41 36 -32 68 -55 71 -53 2 3
-17 49 -42 102 -26 53 -44 99 -41 102 3 4 165 -57 359 -134 531 -211 736 -283
977 -341 217 -53 329 -64 556 -56 275 11 373 11 490 2 l100 -9 -43 38 -44 37
92 33 c51 18 126 52 167 76 74 42 219 165 208 176 -3 3 -15 -4 -28 -15 -117
-106 -357 -214 -551 -248 -227 -39 -622 -7 -966 80 -265 66 -363 103 -698 261
-736 348 -1225 533 -1545 587 l-78 13 177 182 c97 101 175 184 173 186 -2 2
-67 -28 -144 -65z"/>
<path d="M5115 3830 c-192 -21 -422 -45 -510 -54 -88 -9 -263 -28 -390 -41
-126 -13 -342 -36 -480 -50 -137 -14 -347 -37 -465 -50 l-215 -24 175 4 c200
6 1285 48 1803 70 191 8 368 15 392 15 43 0 45 1 54 38 5 20 13 58 16 85 7 42
5 47 -11 46 -11 -1 -176 -18 -369 -39z"/>
<path d="M1982 3785 c-19 -16 -34 -41 -41 -72 -7 -27 -14 -56 -17 -65 -5 -16
13 -17 56 -1 8 3 24 8 35 10 49 9 93 79 74 116 -24 45 -63 49 -107 12z"/>
<path d="M3003 3603 c9 -2 23 -2 30 0 6 3 -1 5 -18 5 -16 0 -22 -2 -12 -5z"/>
<path d="M4800 3475 c-245 -7 -670 -18 -945 -24 -275 -7 -513 -13 -530 -15
-16 -2 431 -4 995 -4 l1026 -2 17 30 18 30 -68 -2 c-37 0 -268 -7 -513 -13z"/>
<path d="M3069 3362 c11 -16 27 -35 36 -42 18 -15 -29 -16 660 10 281 11 692
27 915 35 223 9 416 17 430 19 14 2 -444 4 -1018 5 l-1043 1 20 -28z"/>
<path d="M5209 3293 c-13 -16 -12 -17 4 -4 9 7 17 15 17 17 0 8 -8 3 -21 -13z"/>
<path d="M1622 3288 c-16 -16 -15 -43 3 -78 29 -57 61 -26 53 51 -3 37 -32 51
-56 27z"/>
<path d="M1487 3274 c-16 -17 -5 -54 24 -78 57 -48 82 -29 45 36 -22 40 -52
58 -69 42z"/>
<path d="M1745 3246 c-33 -78 -11 -99 44 -42 39 40 38 70 -2 74 -23 3 -30 -2
-42 -32z"/>
<path d="M1865 3201 c-89 -55 -95 -107 -9 -77 77 26 106 64 65 86 -25 13 -21
13 -56 -9z"/>
<path d="M1392 3178 c-17 -17 -15 -45 4 -52 9 -3 36 -6 60 -6 37 0 44 3 44 20
0 35 -82 64 -108 38z"/>
<path d="M3285 3160 c18 -29 64 -38 195 -39 74 -1 304 -6 510 -11 641 -16 642
-9 5 26 -689 37 -719 38 -710 24z"/>
<path d="M1650 3126 c0 -29 19 -44 31 -25 13 20 6 43 -14 47 -12 3 -17 -3 -17
-22z"/>
<path d="M1580 3127 c0 -7 6 -22 14 -33 20 -27 43 -6 27 25 -13 23 -41 29 -41
8z"/>
<path d="M1709 3109 c-16 -31 7 -52 27 -25 8 11 14 26 14 33 0 21 -28 15 -41
-8z"/>
<path d="M1867 3089 c-21 -11 -37 -26 -34 -32 5 -16 101 -21 127 -7 14 7 20
19 18 33 -4 30 -60 33 -111 6z"/>
<path d="M1520 3090 c0 -10 32 -30 49 -30 17 0 13 27 -5 34 -23 9 -44 7 -44
-4z"/>
<path d="M1348 3079 c-27 -15 -22 -48 8 -55 33 -8 106 7 112 24 2 7 -12 19
-32 27 -41 17 -64 18 -88 4z"/>
<path d="M1740 3065 c-10 -12 -9 -16 4 -21 16 -6 46 11 46 27 0 15 -37 10 -50
-6z"/>
<path d="M1497 3033 c-15 -15 -5 -23 28 -23 24 0 35 5 35 15 0 15 -50 22 -63
8z"/>
<path d="M1624 3026 c-3 -9 -3 -28 0 -42 6 -21 11 -25 39 -22 29 3 32 6 32 38
0 32 -3 35 -33 38 -22 2 -34 -2 -38 -12z"/>
<path d="M1754 3019 c-3 -6 -2 -15 3 -20 13 -13 43 -1 43 17 0 16 -36 19 -46
3z"/>
<path d="M1882 3008 c-58 -13 -54 -39 7 -51 60 -12 91 -3 91 27 0 21 -27 39
-50 35 -3 -1 -24 -5 -48 -11z"/>
<path d="M3860 3010 l-305 -5 84 -29 c96 -33 24 -34 646 10 198 13 367 26 375
28 20 5 -420 3 -800 -4z"/>
<path d="M1352 2977 c-9 -11 -8 -18 8 -32 18 -16 23 -17 57 -3 21 7 38 20 38
28 0 21 -87 26 -103 7z"/>
<path d="M1511 2979 c-17 -7 -21 -13 -14 -20 15 -15 58 -7 58 10 0 19 -14 22
-44 10z"/>
<path d="M1735 2959 c-4 -6 -1 -15 6 -20 20 -13 54 -6 54 11 0 18 -50 26 -60
9z"/>
<path d="M4238 2946 c-207 -12 -379 -24 -383 -27 -13 -14 198 -34 340 -33 180
2 375 31 475 72 23 10 22 11 -15 10 -22 0 -210 -10 -417 -22z"/>
<path d="M1545 2930 c-10 -11 -15 -23 -12 -27 11 -10 59 16 55 29 -7 20 -24
19 -43 -2z"/>
<path d="M1601 2908 c-10 -26 -6 -38 13 -38 14 0 29 38 20 52 -9 15 -25 8 -33
-14z"/>
<path d="M1660 2895 c0 -16 6 -25 15 -25 9 0 15 9 15 25 0 16 -6 25 -15 25 -9
0 -15 -9 -15 -25z"/>
<path d="M1710 2900 c0 -14 7 -20 21 -20 15 0 19 4 15 16 -3 9 -6 18 -6 20 0
2 -7 4 -15 4 -8 0 -15 -9 -15 -20z"/>
<path d="M1810 2904 c0 -14 43 -75 63 -89 29 -20 44 -19 58 6 16 31 -6 67 -50
79 -41 11 -71 13 -71 4z"/>
<path d="M1412 2880 c-38 -23 -42 -63 -7 -67 23 -3 85 49 85 72 0 21 -39 19
-78 -5z"/>
<path d="M2721 2886 c-40 -14 -81 -62 -81 -95 0 -25 33 -61 56 -61 50 0 97 55
109 128 7 41 6 42 -22 41 -15 0 -43 -6 -62 -13z"/>
<path d="M2866 2852 c-14 -23 -18 -114 -6 -142 34 -82 130 -64 130 24 0 41
-108 144 -124 118z"/>
<path d="M1514 2816 c-47 -47 -44 -97 4 -82 21 7 66 91 57 106 -11 17 -26 11
-61 -24z"/>
<path d="M1744 2835 c-10 -25 29 -80 59 -83 43 -5 46 23 6 64 -35 37 -56 43
-65 19z"/>
<path d="M1646 2818 c-16 -60 3 -106 37 -92 21 8 29 36 21 71 -12 46 -47 59
-58 21z"/>
<path d="M5000 2771 c-14 -4 -40 -11 -57 -15 -18 -5 -33 -14 -33 -21 0 -7 20
-31 45 -54 36 -33 52 -41 83 -41 77 0 98 74 33 117 -19 13 -37 22 -40 22 -3
-1 -17 -5 -31 -8z"/>
<path d="M590 1750 l0 -420 235 0 235 0 0 45 0 45 -180 0 -180 0 0 375 0 375
-55 0 -55 0 0 -420z"/>
<path d="M3320 1750 l0 -420 51 0 50 0 -3 350 c-2 193 -2 350 -1 350 2 0 17
-28 34 -62 36 -72 110 -195 272 -453 l113 -180 57 -3 57 -3 0 421 0 420 -51 0
-50 0 3 -343 3 -343 -62 113 c-34 62 -93 161 -131 221 -38 59 -104 162 -146
230 l-77 122 -60 0 -59 0 0 -420z"/>
<path d="M5328 2063 l-48 -14 0 -55 0 -54 -45 0 -45 0 0 -45 0 -45 45 0 45 0
0 -192 c1 -155 4 -203 18 -243 24 -69 64 -95 148 -95 86 0 94 5 94 51 l0 39
-53 0 c-89 0 -91 5 -95 241 l-3 198 78 3 78 3 0 40 0 40 -77 3 -78 3 0 69 c0
39 -3 70 -7 69 -5 -1 -29 -8 -55 -16z"/>
<path d="M1312 1932 c-29 -11 -69 -32 -89 -48 -133 -108 -144 -363 -19 -487
56 -57 99 -72 201 -72 105 0 163 23 222 88 109 121 104 344 -9 457 -71 72
-204 98 -306 62z m168 -84 c74 -38 110 -110 110 -223 0 -119 -72 -213 -169
-223 -57 -5 -95 12 -139 62 -37 42 -52 91 -52 170 0 112 46 193 125 221 55 20
74 18 125 -7z"/>
<path d="M2575 1938 c-123 -45 -195 -162 -195 -319 0 -123 56 -220 155 -272
51 -26 175 -35 254 -17 86 19 91 23 78 66 -9 29 -14 34 -31 29 -62 -18 -144
-24 -194 -14 -87 18 -133 68 -156 172 l-6 27 215 0 215 0 0 59 c0 125 -73 245
-165 270 -50 14 -130 13 -170 -1z m171 -99 c32 -29 54 -78 54 -119 l0 -30
-156 0 -157 0 6 36 c8 50 52 112 90 130 48 22 131 13 163 -17z"/>
<path d="M4286 1936 c-92 -34 -146 -95 -178 -199 -52 -174 22 -351 169 -401
59 -20 172 -20 248 -1 33 9 61 17 63 19 2 2 -1 19 -6 37 -10 37 -7 37 -111 20
-81 -13 -152 0 -199 35 -37 29 -71 93 -72 137 l0 27 211 0 212 0 -5 83 c-8
157 -87 246 -225 253 -44 3 -82 -1 -107 -10z m156 -83 c38 -23 65 -68 74 -121
l7 -42 -162 0 c-179 0 -175 -2 -145 68 17 42 59 90 89 102 35 15 106 11 137
-7z"/>
<path d="M4870 1938 c-46 -13 -96 -52 -115 -88 -8 -16 -15 -51 -15 -77 0 -76
29 -109 146 -168 108 -55 131 -81 119 -136 -17 -75 -119 -89 -246 -35 -12 5
-18 -3 -28 -35 -7 -22 -11 -42 -9 -44 15 -14 111 -35 161 -35 79 0 128 14 167
47 43 36 60 74 60 133 0 91 -40 136 -163 185 -101 41 -131 92 -87 148 33 42
79 45 186 12 18 -6 23 -1 33 26 16 46 16 47 -41 64 -58 17 -116 18 -168 3z"/>
<path d="M1760 1935 c0 -3 32 -89 72 -192 39 -104 90 -237 113 -298 l42 -110
54 -3 54 -2 114 292 c63 161 114 298 115 303 1 12 -84 18 -101 8 -6 -5 -37
-82 -68 -173 -106 -311 -108 -315 -116 -294 -4 10 -40 114 -79 229 -40 116
-77 218 -82 228 -7 13 -21 17 -63 17 -30 0 -55 -2 -55 -5z"/>
</g>
</svg>
