<?xml version="1.0" standalone="no"?>
<!DOCTYPE svg PUBLIC "-//W3C//DTD SVG 20010904//EN"
 "http://www.w3.org/TR/2001/REC-SVG-20010904/DTD/svg10.dtd">
<svg version="1.0" xmlns="http://www.w3.org/2000/svg"
 width="500.000000pt" height="500.000000pt" viewBox="0 0 500.000000 500.000000"
 preserveAspectRatio="xMidYMid meet">

<g transform="translate(0.000000,500.000000) scale(0.100000,-0.100000)"
fill="#000000" stroke="none">
<path d="M2872 4008 c-7 -7 -12 -21 -12 -33 0 -12 5 -26 12 -33 7 -7 21 -12
33 -12 12 0 26 5 33 12 7 7 12 21 12 33 0 12 -5 26 -12 33 -7 7 -21 12 -33 12
-12 0 -26 -5 -33 -12z"/>
<path d="M3980 3881 c-30 -17 -37 -17 -55 -5 -10 8 -43 14 -71 14 -45 0 -56
-4 -73 -26 -27 -35 -27 -98 0 -148 28 -52 139 -176 158 -176 17 0 105 88 150
150 62 86 59 160 -9 195 -37 19 -57 18 -100 -4z m88 -37 c43 -30 16 -105 -72
-199 l-56 -60 -53 56 c-78 82 -109 163 -75 197 17 17 70 15 94 -3 26 -20 48
-19 86 5 40 24 47 24 76 4z"/>
<path d="M2685 3751 c-17 -10 -39 -36 -48 -58 -14 -29 -33 -48 -75 -73 -64
-38 -190 -131 -270 -199 -35 -30 -48 -47 -40 -52 16 -10 22 -6 -114 -78 -87
-46 -118 -67 -118 -81 0 -33 20 -33 73 2 29 19 67 42 84 52 43 22 230 38 259
23 36 -20 103 -72 104 -79 0 -5 -45 -8 -100 -8 l-100 0 0 -34 c0 -63 5 -67 74
-61 33 3 205 12 381 20 852 39 1389 66 1394 71 2 2 -206 4 -463 4 l-468 0 48
33 c30 19 66 58 94 99 47 69 58 77 172 118 65 24 77 44 53 90 -21 41 -42 39
-149 -17 l-91 -46 -67 11 c-77 13 -153 14 -183 3 -14 -6 -30 -1 -55 15 -44 30
-91 31 -116 3 -10 -12 -30 -25 -42 -30 l-24 -9 31 -29 c24 -22 31 -38 31 -65
0 -69 36 -123 105 -159 28 -15 14 -16 -220 -17 l-250 0 -38 31 c-20 17 -37 34
-37 38 0 5 29 20 65 36 119 50 197 140 210 244 10 71 31 120 56 130 19 6 17
11 -27 49 -55 47 -90 53 -139 23z"/>
<path d="M3075 3760 c-4 -6 -15 -8 -24 -5 -52 16 -67 -32 -24 -77 31 -33 41
-34 60 -10 36 46 44 62 38 82 -7 21 -39 27 -50 10z"/>
<path d="M4333 3628 c-31 -15 -53 -64 -43 -99 12 -40 16 -45 50 -59 58 -24
120 16 120 76 0 46 -9 63 -41 79 -32 17 -55 18 -86 3z m76 -42 c17 -20 10 -67
-11 -79 -27 -18 -68 7 -68 41 0 15 5 33 12 40 16 16 53 15 67 -2z"/>
<path d="M1076 3464 c-32 -31 -6 -117 42 -143 17 -9 22 -6 32 19 20 47 15 102
-10 122 -27 22 -44 23 -64 2z"/>
<path d="M1228 3413 c-14 -16 -38 -83 -38 -107 0 -13 68 1 97 19 32 22 46 60
30 85 -15 25 -68 27 -89 3z"/>
<path d="M4010 3360 c-15 -29 -3 -59 26 -66 30 -8 54 11 54 40 0 46 -59 64
-80 26z"/>
<path d="M1221 3254 c-62 -29 -115 -54 -117 -54 -2 0 -13 19 -25 42 -20 38
-23 41 -29 22 -5 -11 -11 -46 -15 -76 -4 -30 -10 -59 -13 -65 -4 -5 -37 -32
-73 -60 l-66 -50 -99 -6 c-97 -6 -214 -34 -245 -59 -12 -10 -18 -38 -23 -105
-4 -51 -5 -93 -2 -93 2 0 26 9 53 21 153 66 358 92 539 70 121 -15 317 -65
482 -121 138 -48 156 -63 187 -160 22 -67 19 -64 43 -49 18 11 25 9 57 -17 79
-62 77 -62 49 2 -14 31 -32 70 -40 86 -8 15 -11 28 -6 28 4 0 116 -43 248 -96
763 -306 1021 -371 1359 -342 168 14 172 14 305 4 l105 -8 -28 30 -29 30 54
17 c84 28 188 83 248 132 69 57 99 97 36 49 -113 -86 -294 -163 -438 -186
-110 -18 -400 -8 -553 19 -299 52 -483 112 -787 257 -511 242 -847 377 -1123
450 -71 18 -141 34 -155 34 -67 1 -60 14 83 158 116 118 149 154 135 151 -2 0
-54 -25 -117 -55z"/>
<path d="M4435 3154 c-11 -2 -218 -25 -460 -49 -1516 -157 -1503 -155 -1295
-149 85 2 196 7 245 9 50 3 225 10 390 15 165 6 390 15 500 20 110 5 292 12
405 15 113 4 215 8 227 11 24 4 29 15 39 87 7 50 6 51 -51 41z"/>
<path d="M1615 3086 c-23 -23 -44 -91 -32 -103 12 -12 80 9 103 32 28 28 31
57 8 79 -22 23 -51 20 -79 -8z"/>
<path d="M4015 2839 c-132 -4 -460 -12 -730 -19 -269 -6 -492 -13 -494 -16 -2
-2 350 -3 784 -2 l788 3 15 23 14 22 -68 -2 c-38 0 -177 -5 -309 -9z"/>
<path d="M2500 2759 c0 -3 12 -17 28 -31 l27 -26 205 8 c113 5 282 11 375 15
442 16 838 35 842 39 3 3 -328 4 -736 3 -407 -1 -741 -5 -741 -8z"/>
<path d="M1333 2693 c-17 -6 -16 -55 1 -79 21 -27 38 -6 34 41 -3 38 -12 48
-35 38z"/>
<path d="M1217 2673 c-23 -23 27 -91 58 -79 14 5 13 10 -5 46 -19 37 -38 49
-53 33z"/>
<path d="M1435 2670 c-16 -26 -23 -70 -13 -76 16 -10 69 52 62 71 -7 17 -40
20 -49 5z"/>
<path d="M1514 2608 c-68 -53 -50 -78 31 -44 37 16 48 49 19 60 -21 8 -17 9
-50 -16z"/>
<path d="M1145 2596 c-32 -23 -12 -46 40 -46 51 0 56 10 19 39 -31 25 -35 25
-59 7z"/>
<path d="M2680 2587 c0 -4 12 -13 28 -21 22 -11 112 -15 452 -19 460 -5 460
-5 20 18 -162 9 -341 18 -397 22 -57 3 -103 3 -103 0z"/>
<path d="M1296 2562 c-9 -15 4 -42 20 -42 18 0 18 11 1 35 -9 11 -16 14 -21 7z"/>
<path d="M1350 2549 c0 -24 23 -21 28 4 2 10 -3 17 -12 17 -10 0 -16 -9 -16
-21z"/>
<path d="M1401 2542 c-13 -25 2 -38 19 -16 9 10 10 18 3 25 -8 8 -14 5 -22 -9z"/>
<path d="M1252 2523 c2 -10 11 -19 21 -21 24 -5 21 15 -4 28 -18 10 -20 9 -17
-7z"/>
<path d="M1528 2524 c-16 -8 -28 -19 -28 -24 0 -16 96 -12 110 5 28 34 -30 48
-82 19z"/>
<path d="M3643 2533 c15 -2 37 -2 50 0 12 2 0 4 -28 4 -27 0 -38 -2 -22 -4z"/>
<path d="M1094 2507 c-11 -29 6 -40 53 -34 24 2 47 8 50 11 12 12 -14 28 -56
33 -31 4 -42 2 -47 -10z"/>
<path d="M1433 2513 c-18 -6 -16 -23 1 -23 17 0 30 16 19 23 -5 2 -14 2 -20 0z"/>
<path d="M1329 2469 c-13 -26 5 -51 35 -47 30 4 29 48 -1 59 -18 6 -25 4 -34
-12z"/>
<path d="M1220 2470 c0 -5 11 -10 25 -10 14 0 25 5 25 10 0 6 -11 10 -25 10
-14 0 -25 -4 -25 -10z"/>
<path d="M1430 2460 c0 -5 9 -10 20 -10 11 0 20 5 20 10 0 6 -9 10 -20 10 -11
0 -20 -4 -20 -10z"/>
<path d="M1521 2449 c-31 -12 -18 -25 34 -33 45 -7 71 4 62 28 -7 18 -57 21
-96 5z"/>
<path d="M2911 2456 c2 -2 33 -13 69 -25 l64 -22 301 21 c165 11 314 22 330
24 17 1 -150 4 -369 4 -220 1 -397 0 -395 -2z"/>
<path d="M1104 2429 c-12 -19 13 -32 50 -25 51 10 48 36 -3 36 -22 0 -43 -5
-47 -11z"/>
<path d="M1230 2430 c-12 -8 -12 -10 2 -15 19 -7 38 1 38 16 0 12 -21 11 -40
-1z"/>
<path d="M1420 2410 c0 -5 11 -10 25 -10 14 0 25 5 25 10 0 6 -11 10 -25 10
-14 0 -25 -4 -25 -10z"/>
<path d="M3450 2404 c-107 -6 -220 -13 -250 -14 -111 -4 -1 -22 166 -27 166
-6 296 8 404 42 l45 14 -85 -1 c-47 0 -173 -7 -280 -14z"/>
<path d="M1260 2395 c-7 -8 -10 -19 -6 -22 9 -9 38 8 38 22 -1 16 -18 16 -32
0z"/>
<path d="M1307 2370 c-3 -11 -1 -22 3 -25 11 -7 32 30 23 39 -11 11 -21 6 -26
-14z"/>
<path d="M1360 2359 c0 -11 5 -17 10 -14 6 3 10 13 10 21 0 8 -4 14 -10 14 -5
0 -10 -9 -10 -21z"/>
<path d="M1400 2366 c0 -9 7 -16 16 -16 17 0 14 22 -4 28 -7 2 -12 -3 -12 -12z"/>
<path d="M1486 2372 c-7 -12 35 -71 58 -78 25 -8 40 10 32 39 -3 15 -15 27
-30 31 -13 3 -31 8 -39 12 -8 3 -17 1 -21 -4z"/>
<path d="M1158 2354 c-32 -17 -38 -54 -9 -54 23 0 74 47 66 60 -8 14 -25 12
-57 -6z"/>
<path d="M2214 2351 c-56 -26 -72 -72 -35 -105 36 -33 93 10 109 82 9 39 8 42
-12 42 -11 0 -39 -9 -62 -19z"/>
<path d="M1426 2322 c-2 -4 2 -22 9 -40 11 -24 20 -32 40 -32 33 0 32 20 -3
53 -30 28 -38 32 -46 19z"/>
<path d="M2334 2283 c-11 -75 29 -128 80 -105 20 9 26 19 26 44 0 18 -4 39 -8
46 -10 15 -73 62 -83 62 -4 0 -11 -21 -15 -47z"/>
<path d="M1230 2293 c-23 -29 -23 -58 0 -58 14 0 60 59 60 76 0 20 -40 7 -60
-18z"/>
<path d="M1344 2286 c-7 -41 0 -56 27 -56 14 0 19 7 19 29 0 66 -34 86 -46 27z"/>
<path d="M4085 2263 c-11 -2 -32 -9 -47 -15 -23 -9 -26 -13 -17 -30 14 -26 68
-58 100 -58 53 0 67 54 23 89 -15 12 -29 20 -33 20 -3 -1 -15 -3 -26 -6z"/>
<path d="M493 1773 c-10 -4 -13 -82 -13 -344 l0 -339 190 0 190 0 0 35 0 35
-145 0 -145 0 0 305 c0 168 -3 305 -7 306 -5 0 -19 2 -33 3 -14 2 -31 1 -37
-1z"/>
<path d="M2716 1772 c-4 -3 -6 -158 -6 -344 l0 -338 40 0 40 0 2 283 3 282 34
-65 c19 -36 95 -163 170 -282 l136 -218 48 0 47 0 -2 343 -3 342 -40 0 -40 0
1 -278 c1 -153 0 -276 -1 -275 -2 2 -18 30 -36 63 -55 103 -291 477 -303 480
-23 8 -85 12 -90 7z"/>
<path d="M4365 1687 c-47 -15 -57 -27 -53 -66 3 -35 2 -36 -34 -39 -36 -3 -38
-5 -38 -37 0 -32 2 -34 37 -37 l37 -3 -2 -130 c-4 -167 8 -231 49 -268 27 -25
36 -28 92 -25 62 3 62 3 65 36 3 31 2 32 -35 32 -21 0 -43 4 -50 8 -25 16 -33
68 -33 207 l0 144 63 3 c62 3 62 3 65 36 l3 32 -65 0 -65 0 -3 58 -3 59 -30
-10z"/>
<path d="M1039 1562 c-98 -51 -147 -174 -120 -298 25 -108 100 -175 204 -182
80 -5 132 9 181 50 55 45 86 117 86 198 0 87 -13 128 -57 180 -73 85 -191 106
-294 52z m191 -61 c65 -44 88 -192 44 -276 -40 -77 -131 -104 -200 -58 -72 47
-93 197 -41 286 15 26 29 47 30 47 1 0 20 7 42 14 46 16 89 12 125 -13z"/>
<path d="M2070 1568 c-110 -59 -159 -226 -104 -358 35 -83 119 -130 229 -129
39 0 88 6 110 13 36 11 40 15 37 41 -2 17 -5 31 -6 32 -1 2 -18 -2 -37 -7 -56
-16 -150 -12 -189 8 -37 20 -80 89 -80 129 l0 23 176 0 177 0 -6 60 c-6 75
-39 143 -85 178 -29 22 -47 27 -106 30 -60 3 -78 0 -116 -20z m182 -75 c20
-20 31 -44 35 -71 l6 -42 -132 0 c-146 0 -143 -2 -111 67 39 86 139 109 202
46z"/>
<path d="M3472 1569 c-79 -39 -124 -123 -126 -234 -1 -91 22 -154 77 -200 48
-41 90 -55 170 -55 60 0 144 17 152 30 3 5 1 20 -4 34 -9 23 -13 24 -43 15
-54 -15 -149 -11 -188 9 -37 18 -80 87 -80 129 l0 23 170 0 c196 0 190 -4 172
93 -22 117 -89 177 -199 177 -39 0 -72 -7 -101 -21z m144 -49 c38 -14 65 -52
71 -101 l6 -39 -132 0 c-146 0 -143 -2 -111 67 31 69 96 98 166 73z"/>
<path d="M3951 1572 c-51 -26 -76 -65 -76 -120 0 -67 24 -96 114 -138 82 -39
100 -56 101 -92 1 -66 -63 -94 -155 -68 -31 10 -59 16 -60 14 -2 -2 -6 -15
-10 -31 -6 -24 -3 -29 29 -42 55 -23 153 -19 206 8 74 37 99 115 62 187 -15
27 -38 45 -108 80 -70 35 -90 50 -92 69 -11 72 41 103 127 78 l50 -14 10 29
c10 28 8 30 -24 44 -47 19 -132 18 -174 -4z"/>
<path d="M1443 1568 c2 -7 44 -118 92 -246 l88 -233 45 3 45 3 88 223 c48 123
91 232 94 243 6 17 1 19 -39 19 l-45 0 -19 -52 c-10 -29 -41 -117 -68 -195
-27 -79 -51 -143 -54 -143 -3 1 -29 74 -59 163 -80 241 -73 227 -127 227 -33
0 -45 -4 -41 -12z"/>
</g>
</svg>
